<svg xmlns="http://www.w3.org/2000/svg" width="144" height="144" viewBox="0 0 144 144">
  <g id="Grupo_157572" data-name="Grupo 157572" transform="translate(-413 -4289)">
    <g id="Elipse_4770" data-name="Elipse 4770" transform="translate(413 4289)" fill="#fff" stroke="#e7f9fa" stroke-width="6">
      <circle cx="72" cy="72" r="72" stroke="none"/>
      <circle cx="72" cy="72" r="69" fill="none"/>
    </g>
    <g id="_019-insurance" data-name="019-insurance" transform="translate(444 4320)">
      <path id="Trazado_174334" data-name="Trazado 174334" d="M136.759,24,112,37.755s-.057,34.331,24.759,39.89c0,0,24.7-5.559,24.759-39.89Z" transform="translate(-95.494 -22.625)" fill="#6ed2f0"/>
      <path id="Trazado_174335" data-name="Trazado 174335" d="M170.917,108.374a19.209,19.209,0,0,1-8.863-5.818,31.918,31.918,0,0,1-6.007-10.918,56.06,56.06,0,0,1-2.569-12.085L171.1,69.759l17.748,9.859c-.673,10.009-3.882,17.845-9.563,23.33A25.619,25.619,0,0,1,170.917,108.374Z" transform="translate(-129.839 -60.516)" fill="#e9eef2"/>
      <path id="Trazado_174336" data-name="Trazado 174336" d="M212.127,141.5l2.751,2.751L223.131,136l4.127,4.127-12.38,12.38L208,145.629Z" transform="translate(-174.988 -115.367)" fill="#ffd33a"/>
      <path id="Trazado_174337" data-name="Trazado 174337" d="M136.2,339.424l-10.6,5.512-.128-.406a5.508,5.508,0,0,0-7.8-3.556L103.637,348l-19.257-5.5H72v13.755h2.751l31.637,8.253,37.139-20.633a5.011,5.011,0,0,0-7.322-4.445Z" transform="translate(-62.371 -283.347)" fill="#f0c6a4"/>
      <path id="Trazado_174338" data-name="Trazado 174338" d="M24,344H35v19.257H24Z" transform="translate(-22.625 -287.604)" fill="#3397e8"/>
      <path id="Trazado_174339" data-name="Trazado 174339" d="M130.8,16.173a1.376,1.376,0,0,0-1.336,0L104.708,29.929a1.376,1.376,0,0,0-.708,1.2,63.787,63.787,0,0,0,3.144,18.3,40.458,40.458,0,0,0,7.616,13.921,27.624,27.624,0,0,0,15.075,9.017,1.378,1.378,0,0,0,.6,0,31.261,31.261,0,0,0,12.987-7.4A36.844,36.844,0,0,0,152.263,52.4a53.423,53.423,0,0,0,4.006-21.262,1.376,1.376,0,0,0-.708-1.2ZM149.781,51.2a34.163,34.163,0,0,1-8.11,11.633A29.785,29.785,0,0,1,130.114,69.6a24.917,24.917,0,0,1-13.257-8.037,37.657,37.657,0,0,1-7.082-12.944A62.907,62.907,0,0,1,106.77,31.93l23.365-12.98,23.378,12.988A50.24,50.24,0,0,1,149.781,51.2Z" transform="translate(-88.869 -16)"/>
      <path id="Trazado_174340" data-name="Trazado 174340" d="M163.812,61.932l-17.628,9.793a1.376,1.376,0,0,0-.7,1.343,57.578,57.578,0,0,0,2.636,12.388A33.266,33.266,0,0,0,154.4,96.842a20.5,20.5,0,0,0,9.485,6.22,1.373,1.373,0,0,0,.907-.03,27.123,27.123,0,0,0,8.831-5.718c5.926-5.722,9.285-13.873,9.981-24.228a1.375,1.375,0,0,0-.7-1.295l-17.747-9.86a1.376,1.376,0,0,0-1.336,0ZM180.79,73.769c-.771,9.238-3.824,16.491-9.081,21.566a24.5,24.5,0,0,1-7.466,4.952,17.852,17.852,0,0,1-7.783-5.266,30.557,30.557,0,0,1-5.736-10.452,54.188,54.188,0,0,1-2.4-10.884l16.16-8.978Z" transform="translate(-123.215 -53.892)"/>
      <path id="Trazado_174341" data-name="Trazado 174341" d="M206.474,133.9a1.376,1.376,0,0,0-1.945,0l-4.127,4.127a1.375,1.375,0,0,0,0,1.945l6.878,6.878a1.376,1.376,0,0,0,1.945,0l12.38-12.38a1.376,1.376,0,0,0,0-1.945l-4.127-4.127a1.375,1.375,0,0,0-1.945,0l-7.28,7.281Zm10.031-2.584,2.181,2.181-10.435,10.434L203.32,139l2.181-2.181,1.778,1.779a1.376,1.376,0,0,0,1.945,0Z" transform="translate(-168.363 -108.743)"/>
      <path id="Trazado_174342" data-name="Trazado 174342" d="M17.375,353.75h11a1.376,1.376,0,0,0,1.376-1.375V351.4l29.914,7.8a1.376,1.376,0,0,0,1.014-.129l37.139-20.633a1.376,1.376,0,0,0,.708-1.2,6.386,6.386,0,0,0-9.332-5.666l-9.19,4.779a6.886,6.886,0,0,0-9.313-3.24L57.13,339.9l-18.743-5.355a1.379,1.379,0,0,0-.378-.053H29.755v-1.375a1.376,1.376,0,0,0-1.376-1.376h-11A1.376,1.376,0,0,0,16,333.118v19.257a1.376,1.376,0,0,0,1.376,1.375Zm12.38-16.506h8.061l19.072,5.449a1.375,1.375,0,0,0,.993-.092l14.046-7.023a4.041,4.041,0,0,1,3.557-.065,4.12,4.12,0,0,1,2.082,2.115l-15.431,8.024a1.376,1.376,0,0,0,1.269,2.442l27.065-14.075a3.638,3.638,0,0,1,5.233,2.46L59.83,356.407l-30.075-7.846Zm-11-2.751H27V351H18.751Z" transform="translate(-16 -276.722)"/>
    </g>
  </g>
</svg>
