<svg xmlns="http://www.w3.org/2000/svg" width="85.523" height="37.823" viewBox="0 0 85.523 37.823">
  <g id="Grupo_156614" data-name="Grupo 156614" transform="translate(-180 -1699.739)">
    <g id="Grupo_156327" data-name="Grupo 156327" transform="translate(0 545.814)">
      <path id="Trazado_116550" data-name="Trazado 116550" d="M418.688,119.934a2.239,2.239,0,1,1-2.238-2.14A2.191,2.191,0,0,1,418.688,119.934Z" transform="translate(-234.214 1036.131)" fill="#13c6cc"/>
      <path id="Trazado_116551" data-name="Trazado 116551" d="M418.688,119.934a2.239,2.239,0,1,1-2.238-2.14A2.191,2.191,0,0,1,418.688,119.934Z" transform="translate(-183.559 1036.131)" fill="#13c6cc"/>
      <path id="Trazado_116552" data-name="Trazado 116552" d="M427.134,119.934a2.239,2.239,0,1,1-2.236-2.14A2.19,2.19,0,0,1,427.134,119.934Z" transform="translate(-232.529 1036.131)" fill="#13c6cc"/>
      <path id="Trazado_116553" data-name="Trazado 116553" d="M427.134,119.934a2.239,2.239,0,1,1-2.236-2.14A2.19,2.19,0,0,1,427.134,119.934Z" transform="translate(-181.873 1036.131)" fill="#13c6cc"/>
      <path id="Trazado_116554" data-name="Trazado 116554" d="M435.58,119.934a2.239,2.239,0,1,1-2.236-2.14A2.191,2.191,0,0,1,435.58,119.934Z" transform="translate(-230.844 1036.131)" fill="#13c6cc"/>
      <path id="Trazado_116555" data-name="Trazado 116555" d="M435.58,119.934a2.239,2.239,0,1,1-2.236-2.14A2.191,2.191,0,0,1,435.58,119.934Z" transform="translate(-180.188 1036.131)" fill="#13c6cc"/>
      <path id="Trazado_116556" data-name="Trazado 116556" d="M444.027,119.934a2.239,2.239,0,1,1-2.238-2.14A2.191,2.191,0,0,1,444.027,119.934Z" transform="translate(-229.16 1036.131)" fill="#13c6cc"/>
      <path id="Trazado_116557" data-name="Trazado 116557" d="M444.027,119.934a2.239,2.239,0,1,1-2.238-2.14A2.191,2.191,0,0,1,444.027,119.934Z" transform="translate(-178.504 1036.131)" fill="#13c6cc"/>
      <path id="Trazado_116558" data-name="Trazado 116558" d="M452.473,119.934a2.239,2.239,0,1,1-2.236-2.14A2.19,2.19,0,0,1,452.473,119.934Z" transform="translate(-227.475 1036.131)" fill="#13c6cc"/>
    </g>
    <g id="Grupo_156326" data-name="Grupo 156326" transform="translate(0 545.814)">
      <ellipse id="Elipse_4754" data-name="Elipse 4754" cx="2.237" cy="2.139" rx="2.237" ry="2.139" transform="translate(180 1165.041)" fill="#13c6cc"/>
      <ellipse id="Elipse_4750" data-name="Elipse 4750" cx="2.237" cy="2.139" rx="2.237" ry="2.139" transform="translate(230.656 1165.041)" fill="#13c6cc"/>
      <path id="Trazado_116548" data-name="Trazado 116548" d="M427.134,127.442a2.239,2.239,0,1,1-2.236-2.14A2.189,2.189,0,0,1,427.134,127.442Z" transform="translate(-232.529 1039.738)" fill="#13c6cc"/>
      <path id="Trazado_116542" data-name="Trazado 116542" d="M427.134,127.442a2.239,2.239,0,1,1-2.236-2.14A2.189,2.189,0,0,1,427.134,127.442Z" transform="translate(-181.873 1039.738)" fill="#13c6cc"/>
      <ellipse id="Elipse_4751" data-name="Elipse 4751" cx="2.237" cy="2.139" rx="2.237" ry="2.139" transform="translate(200.262 1165.041)" fill="#13c6cc"/>
      <ellipse id="Elipse_4752" data-name="Elipse 4752" cx="2.237" cy="2.139" rx="2.237" ry="2.139" transform="translate(250.918 1165.041)" fill="#13c6cc"/>
      <path id="Trazado_116543" data-name="Trazado 116543" d="M444.027,127.442a2.239,2.239,0,1,1-2.238-2.14A2.189,2.189,0,0,1,444.027,127.442Z" transform="translate(-229.16 1039.738)" fill="#13c6cc"/>
      <path id="Trazado_116544" data-name="Trazado 116544" d="M444.027,127.442a2.239,2.239,0,1,1-2.238-2.14A2.189,2.189,0,0,1,444.027,127.442Z" transform="translate(-178.504 1039.738)" fill="#13c6cc"/>
      <path id="Trazado_116545" data-name="Trazado 116545" d="M452.473,127.442a2.239,2.239,0,1,1-2.236-2.14A2.189,2.189,0,0,1,452.473,127.442Z" transform="translate(-227.475 1039.738)" fill="#13c6cc"/>
    </g>
    <g id="Grupo_156332" data-name="Grupo 156332" transform="translate(0 623.814)">
      <path id="Trazado_99257" data-name="Trazado 99257" d="M418.688,104.917a2.239,2.239,0,1,1-2.238-2.138A2.19,2.19,0,0,1,418.688,104.917Z" transform="translate(-234.214 995.577)" fill="#13c6cc"/>
      <path id="Trazado_116526" data-name="Trazado 116526" d="M418.688,104.917a2.239,2.239,0,1,1-2.238-2.138A2.19,2.19,0,0,1,418.688,104.917Z" transform="translate(-183.559 995.577)" fill="#13c6cc"/>
      <path id="Trazado_99258" data-name="Trazado 99258" d="M427.134,104.917a2.239,2.239,0,1,1-2.236-2.138A2.189,2.189,0,0,1,427.134,104.917Z" transform="translate(-232.529 995.577)" fill="#13c6cc"/>
      <path id="Trazado_116527" data-name="Trazado 116527" d="M427.134,104.917a2.239,2.239,0,1,1-2.236-2.138A2.189,2.189,0,0,1,427.134,104.917Z" transform="translate(-181.873 995.577)" fill="#13c6cc"/>
      <path id="Trazado_99259" data-name="Trazado 99259" d="M435.58,104.917a2.239,2.239,0,1,1-2.236-2.138A2.189,2.189,0,0,1,435.58,104.917Z" transform="translate(-230.844 995.577)" fill="#13c6cc"/>
      <path id="Trazado_116531" data-name="Trazado 116531" d="M435.58,104.917a2.239,2.239,0,1,1-2.236-2.138A2.189,2.189,0,0,1,435.58,104.917Z" transform="translate(-180.188 995.577)" fill="#13c6cc"/>
      <path id="Trazado_99260" data-name="Trazado 99260" d="M444.027,104.917a2.239,2.239,0,1,1-2.238-2.138A2.19,2.19,0,0,1,444.027,104.917Z" transform="translate(-229.16 995.577)" fill="#13c6cc"/>
      <path id="Trazado_116532" data-name="Trazado 116532" d="M444.027,104.917a2.239,2.239,0,1,1-2.238-2.138A2.19,2.19,0,0,1,444.027,104.917Z" transform="translate(-178.504 995.577)" fill="#13c6cc"/>
      <path id="Trazado_99261" data-name="Trazado 99261" d="M452.473,104.917a2.239,2.239,0,1,1-2.236-2.138A2.189,2.189,0,0,1,452.473,104.917Z" transform="translate(-227.475 995.577)" fill="#13c6cc"/>
    </g>
    <g id="Grupo_156331" data-name="Grupo 156331" transform="translate(0 623.814)">
      <ellipse id="Elipse_3975" data-name="Elipse 3975" cx="2.237" cy="2.139" rx="2.237" ry="2.139" transform="translate(180 1109.47)" fill="#13c6cc"/>
      <ellipse id="Elipse_4742" data-name="Elipse 4742" cx="2.237" cy="2.139" rx="2.237" ry="2.139" transform="translate(230.656 1109.47)" fill="#13c6cc"/>
      <path id="Trazado_99268" data-name="Trazado 99268" d="M427.134,112.425a2.239,2.239,0,1,1-2.236-2.138A2.19,2.19,0,0,1,427.134,112.425Z" transform="translate(-232.529 999.182)" fill="#13c6cc"/>
      <path id="Trazado_116528" data-name="Trazado 116528" d="M427.134,112.425a2.239,2.239,0,1,1-2.236-2.138A2.19,2.19,0,0,1,427.134,112.425Z" transform="translate(-181.873 999.182)" fill="#13c6cc"/>
      <ellipse id="Elipse_3976" data-name="Elipse 3976" cx="2.237" cy="2.139" rx="2.237" ry="2.139" transform="translate(200.262 1109.47)" fill="#13c6cc"/>
      <ellipse id="Elipse_4743" data-name="Elipse 4743" cx="2.237" cy="2.139" rx="2.237" ry="2.139" transform="translate(250.918 1109.47)" fill="#13c6cc"/>
      <path id="Trazado_99269" data-name="Trazado 99269" d="M444.027,112.425a2.239,2.239,0,1,1-2.238-2.138A2.191,2.191,0,0,1,444.027,112.425Z" transform="translate(-229.16 999.182)" fill="#13c6cc"/>
      <path id="Trazado_116533" data-name="Trazado 116533" d="M444.027,112.425a2.239,2.239,0,1,1-2.238-2.138A2.191,2.191,0,0,1,444.027,112.425Z" transform="translate(-178.504 999.182)" fill="#13c6cc"/>
      <path id="Trazado_99270" data-name="Trazado 99270" d="M452.473,112.425a2.239,2.239,0,1,1-2.236-2.138A2.19,2.19,0,0,1,452.473,112.425Z" transform="translate(-227.475 999.182)" fill="#13c6cc"/>
    </g>
  </g>
</svg>
