<svg xmlns="http://www.w3.org/2000/svg" xmlns:xlink="http://www.w3.org/1999/xlink" width="304.838" height="332" viewBox="0 0 304.838 332">
  <defs>
    <clipPath id="clip-path">
      <rect id="Rectángulo_36809" data-name="Rectángulo 36809" width="304.838" height="332" fill="none"/>
    </clipPath>
    <clipPath id="clip-path-2">
      <rect id="Rectángulo_36781" data-name="Rectángulo 36781" width="304.838" height="332.001" fill="none"/>
    </clipPath>
    <clipPath id="clip-path-3">
      <rect id="Rectángulo_36780" data-name="Rectángulo 36780" width="301.517" height="327.695" fill="none"/>
    </clipPath>
    <clipPath id="clip-path-5">
      <rect id="Rectángulo_36783" data-name="Rectángulo 36783" width="179.015" height="23.122" fill="none"/>
    </clipPath>
    <clipPath id="clip-path-6">
      <rect id="Rectángulo_36807" data-name="Rectángulo 36807" width="193.366" height="269.539" fill="none"/>
    </clipPath>
  </defs>
  <g id="Grupo_157572" data-name="Grupo 157572" transform="translate(9637.791 9211)">
    <g id="Grupo_156352" data-name="Grupo 156352" transform="translate(-9637.791 -9211)">
      <g id="Grupo_156351" data-name="Grupo 156351" clip-path="url(#clip-path)">
        <g id="Grupo_156340" data-name="Grupo 156340" transform="translate(0 -0.001)">
          <g id="Grupo_156339" data-name="Grupo 156339" clip-path="url(#clip-path-2)">
            <g id="Grupo_156338" data-name="Grupo 156338" transform="translate(3.322 4.306)" opacity="0.17" style="mix-blend-mode: multiply;isolation: isolate">
              <g id="Grupo_156337" data-name="Grupo 156337">
                <g id="Grupo_156336" data-name="Grupo 156336" clip-path="url(#clip-path-3)">
                  <path id="Trazado_116637" data-name="Trazado 116637" d="M323.522,69.243,308.751,43.986,224.38,36.253l-84.371-7.734-1.781,2.064L120.892,50.669,200.829,58l-79.938-7.327L119.661,64.1,22.006,71.435l18.2,242.241,46.416-3.488-.074,5.333-.126,9.054,9.346.13-1.186,12.937,202.631,18.573ZM206.209,58.49l16,1.466L307.827,67.8Z" transform="translate(-22.006 -28.519)" fill="#4d4d4d"/>
                </g>
              </g>
            </g>
          </g>
        </g>
        <rect id="Rectángulo_36782" data-name="Rectángulo 36782" width="288.174" height="203.48" transform="translate(72.582 309.121) rotate(-84.763)" fill="#ffd561"/>
        <path id="Trazado_116638" data-name="Trazado 116638" d="M653.729,146.737l-.243,2.651,13.854,24.052,85.391,7.827,85.578,7.844,17.8-21.065.251-2.737Z" transform="translate(-554.843 -124.588)" fill="#cea236"/>
        <path id="Trazado_116639" data-name="Trazado 116639" d="M756.411,156.024,655.1,146.738l14.772,25.257,84.371,7.734,84.371,7.734,19.117-22.15Z" transform="translate(-556.21 -124.588)" fill="#ddb237"/>
        <path id="Trazado_116640" data-name="Trazado 116640" d="M674.214,0,655.1,22.146l101.315,9.287,101.315,9.287L842.955,15.463,758.585,7.729Z" transform="translate(-556.211 0.004)" fill="#ffd561"/>
        <g id="Grupo_156345" data-name="Grupo 156345" transform="translate(0 -0.001)">
          <g id="Grupo_156344" data-name="Grupo 156344" clip-path="url(#clip-path-2)">
            <g id="Grupo_156343" data-name="Grupo 156343" transform="translate(112.208 0.001)" opacity="0.54">
              <g id="Grupo_156342" data-name="Grupo 156342">
                <g id="Grupo_156341" data-name="Grupo 156341" clip-path="url(#clip-path-5)">
                  <path id="Trazado_116641" data-name="Trazado 116641" d="M917.89,15.463,833.519,7.729,749.148,0,743.354,6.71,922.368,23.119Z" transform="translate(-743.353 0.003)" fill="#fff"/>
                </g>
              </g>
            </g>
          </g>
        </g>
        <rect id="Rectángulo_36785" data-name="Rectángulo 36785" width="242.924" height="184.655" transform="matrix(0.014, -1, 1, 0.014, 64.421, 296.055)" fill="#fff"/>
        <rect id="Rectángulo_36786" data-name="Rectángulo 36786" width="3.628" height="159.214" transform="matrix(0.014, -1, 1, 0.014, 80.016, 88.973)" fill="#ddd"/>
        <rect id="Rectángulo_36787" data-name="Rectángulo 36787" width="3.628" height="159.214" transform="matrix(0.014, -1, 1, 0.014, 79.819, 103.183)" fill="#ddd"/>
        <rect id="Rectángulo_36788" data-name="Rectángulo 36788" width="3.628" height="114.352" transform="translate(79.622 117.392) rotate(-89.205)" fill="#ddd"/>
        <rect id="Rectángulo_36789" data-name="Rectángulo 36789" width="3.628" height="159.214" transform="matrix(0.014, -1, 1, 0.014, 79.424, 131.602)" fill="#ddd"/>
        <rect id="Rectángulo_36790" data-name="Rectángulo 36790" width="3.628" height="159.214" transform="matrix(0.014, -1, 1, 0.014, 78.249, 216.32)" fill="#ddd"/>
        <rect id="Rectángulo_36791" data-name="Rectángulo 36791" width="3.628" height="159.214" transform="matrix(0.014, -1, 1, 0.014, 78.052, 230.529)" fill="#ddd"/>
        <rect id="Rectángulo_36792" data-name="Rectángulo 36792" width="3.628" height="159.214" transform="matrix(0.014, -1, 1, 0.014, 79.02, 160.745)" fill="#ddd"/>
        <rect id="Rectángulo_36793" data-name="Rectángulo 36793" width="3.628" height="136.201" transform="translate(78.823 174.954) rotate(-89.205)" fill="#ddd"/>
        <rect id="Rectángulo_36794" data-name="Rectángulo 36794" width="3.628" height="159.214" transform="matrix(0.014, -1, 1, 0.014, 78.626, 189.164)" fill="#ddd"/>
        <rect id="Rectángulo_36795" data-name="Rectángulo 36795" width="3.628" height="108.195" transform="translate(78.429 203.373) rotate(-89.205)" fill="#ddd"/>
        <g id="Grupo_156350" data-name="Grupo 156350" transform="translate(0 -0.001)">
          <g id="Grupo_156353" data-name="Grupo 156353">
            <path id="Trazado_116642" data-name="Trazado 116642" d="M1127.076,1684.378a1.636,1.636,0,0,1-1.109-.473l-.031-.032-.037-.026a.274.274,0,0,1-.127-.175l-.012-.048-.021-.045a.98.98,0,0,1-.1-.437,14.206,14.206,0,0,1,.325-2.641l.005-.027,0-.027c.175-2.107.425-4.743.742-7.833l0-.022v-.023c.005-.583.016-1.269.065-1.942.09-1.248.245-2.532.4-3.774.194-1.6.395-3.255.464-4.891l.078-1.845-.962,1.576a22.478,22.478,0,0,1-2.6,3.574c-1.083,1.172-2.257,2.3-3.392,3.39-1.327,1.275-2.7,2.593-3.951,4a1.222,1.222,0,0,1-.952.456c-.03,0-.06,0-.089,0-.128-.011-.258-.018-.388-.02a6.4,6.4,0,0,0-2.312.431.488.488,0,0,1-.173.03.478.478,0,0,1-.155-.928,5.752,5.752,0,0,0,1.849-1.513l.029-.03.057-.084a1.126,1.126,0,0,1,.086-.119c.381-.429.793-.848,1.191-1.254l.023-.023.009-.01c1.008-1.146,2.206-2.587,3.56-4.284,4.231-5.3,8.986-11.905,9.422-13.083.131-.373.318-.37.38-.369a.669.669,0,0,1,.313.1.476.476,0,0,1,.184.639l-.008.015-.007.016c-.009.019-.018.04-.029.061l-.052.1v.116a21.083,21.083,0,0,1-.145,2.137l-.014.14.064.125a1.3,1.3,0,0,1,.113.3,30.559,30.559,0,0,1,.188,10.144l-.177,1.711,1.033-1.376c.231-.307.363-.359.388-.366a1.02,1.02,0,0,1,.3-.048c.126,0,.508.007.806.9l.024.073.046.062a1.423,1.423,0,0,1,.186.316,9.559,9.559,0,0,1,.59,2.967l.118,1.466.764-1.256a13.205,13.205,0,0,0,.741-1.427l.009-.02.37-1.062c.278-.8.964-2.8,1.121-3.259.09-.266.714-.545,1.563-.533a1.871,1.871,0,0,1,1.347.415.266.266,0,0,1,.049.248c-.2.869-.8,3.223-1.008,4.026l.826.428.028-.033a10.464,10.464,0,0,1,.822-.914,10.072,10.072,0,0,1,2.614-1.564.94.94,0,0,1,.414-.093,1.5,1.5,0,0,1,1.1.7l.067.092.1.052a.435.435,0,0,1,.164.148l.249.366,1.086-.624.052-.058a1.216,1.216,0,0,1,.947-.453,1.315,1.315,0,0,1,.409.073l.144.049.146-.043c6.411-1.9,13.677-4.054,20.987-4.663.806-.067,2.065-.143,3.493-.123,3.447.048,7.838.637,9.181,3.174a1.839,1.839,0,0,1,.076,1.531.927.927,0,0,1-.672.541,18.734,18.734,0,0,1-2.961.366c-.94.065-2,.138-3.405.365a39.672,39.672,0,0,0-6.786,1.675c-1.294.444-2.652.887-3.964,1.317a108.306,108.306,0,0,0-10.793,3.95c-2.7,1.219-3.982,1.778-4.831,2.149-1.426.623-1.426.623-4.638,2.225l-3.015,1.5a2.941,2.941,0,0,1-1.3.352,1.075,1.075,0,0,1-1.108-1.13l0-.026-.005-.026c-.192-.981.165-1.312.515-1.545a15.3,15.3,0,0,1,3.624-2.047c.563-.232,1.335-.55,2.573-1.109,2.093-.944,4.334-1.878,6.662-2.777,4.9-1.891,15.413-5.318,20.541-6.6h.107c.1,0,.1,0,.722-.206.746-.27.944-.342.877-.74l-.066-.392-.4-.006c-.093,0-.1,0-.681.2-.367-.029-.748-.047-1.135-.052a38.375,38.375,0,0,0-7.681.938c-4.875.948-9.858,2.194-15.682,3.92a1.512,1.512,0,0,1-.352.059l-.285.017-.12.259c-.364.787-2.319,1.416-4.981,1.6l-.031,0-.031.006a.821.821,0,0,1-.185.017h-.013l-.056,0a.489.489,0,0,1-.337-.116l-.345-.334-.445.467c-1.144,1.2-2.223,2.338-3.89,2.381h-.064a1.412,1.412,0,0,1-1.008-.427l-.341-.354-.344.352a7.114,7.114,0,0,1-2.089,1.489.872.872,0,0,1-.387.078,1.477,1.477,0,0,1-.792-.272l-.56-.387-.173.658c-.155.587-.33,1.253-.5,1.912-.151.6-.278,1.2-.4,1.775a13.5,13.5,0,0,1-1.92,5.282,1.046,1.046,0,0,1-.9.43" transform="translate(-944.506 -1402.512)" fill="#0273bc"/>
            <rect id="Rectángulo_36796" data-name="Rectángulo 36796" width="184.655" height="242.924" transform="translate(0 42.916) rotate(-4.298)" fill="#fff"/>
            <path id="Trazado_116643" data-name="Trazado 116643" d="M951.205,1477.269l3.5-3.974,10.571,9.093,18.491-21.321,3.882,3.256-21.96,25.529Z" transform="translate(-807.622 -1240.521)" fill="#13c6cc"/>
            <path id="Trazado_116644" data-name="Trazado 116644" d="M908.294,1472.388a22.629,22.629,0,1,1,11.878-40.672l-1.716,1.979a20.018,20.018,0,1,0,8.1,14.654l2.287-2.659a22.8,22.8,0,0,1,.316,2.437,22.629,22.629,0,0,1-20.87,24.261" transform="translate(-750.534 -1211.759)" fill="#13c6cc"/>
            <g id="Grupo_156348" data-name="Grupo 156348" transform="translate(64.547 33.993)" opacity="0.22" style="mix-blend-mode: multiply;isolation: isolate">
              <g id="Grupo_156347" data-name="Grupo 156347">
                <g id="Grupo_156346" data-name="Grupo 156346" clip-path="url(#clip-path-6)">
                  <path id="Trazado_116645" data-name="Trazado 116645" d="M664.8,401.155l-3.3,238.062L486.2,636.786l-.443,4.833,181.219,2.514,3.37-242.9Z" transform="translate(-476.982 -374.594)" fill="#4d4d4d"/>
                  <path id="Trazado_116646" data-name="Trazado 116646" d="M1229.153,246.068l-1.569-20.873-5.088.382,1.535,20.42Z" transform="translate(-1102.51 -225.194)" fill="#4d4d4d"/>
                  <path id="Trazado_116647" data-name="Trazado 116647" d="M1233.027,367.85l5.122.071-.364-4.844-5.122-.071Z" transform="translate(-1111.141 -342.203)" fill="#4d4d4d"/>
                  <path id="Trazado_116648" data-name="Trazado 116648" d="M433.242,1863.223l-5.56.418-.074,5.333,5.56-.418Z" transform="translate(-427.608 -1615.965)" fill="#4d4d4d"/>
                  <path id="Trazado_116649" data-name="Trazado 116649" d="M596.674,606.775l-132.159,9.932-.074,5.333L602.16,611.69,585.888,395.167l-5.122-.071Z" transform="translate(-458.881 -369.449)" fill="#4d4d4d"/>
                </g>
              </g>
            </g>
          </g>
        </g>
      </g>
    </g>
    <text id="NIT:_____________________RUES:_________________________________________________________________________________________________________________________________________________________________________________________________" data-name="NIT: ___________________
RUES: _________________
________________________
________________________
________________________
________________________
________________________
________________________
________________________" transform="matrix(0.998, -0.07, 0.07, 0.998, -9621.045, -9148.915)" fill="#ddd" font-size="14" font-family="Roboto-Black, Roboto" font-weight="800"><tspan x="0" y="15">NIT: ___________________</tspan><tspan x="0" y="33">RUES: _________________</tspan><tspan x="0" y="51">________________________</tspan><tspan x="0" y="69">________________________</tspan><tspan x="0" y="87">________________________</tspan><tspan x="0" y="105">________________________</tspan><tspan x="0" y="123">________________________</tspan><tspan x="0" y="141">________________________</tspan><tspan x="0" y="159">________________________</tspan></text>
  </g>
</svg>
