<svg xmlns="http://www.w3.org/2000/svg" width="144" height="144" viewBox="0 0 144 144">
  <g id="Grupo_157573" data-name="Grupo 157573" transform="translate(-1046 -4289)">
    <g id="Elipse_4771" data-name="Elipse 4771" transform="translate(1046 4289)" fill="#fff" stroke="#e5f1f8" stroke-width="6">
      <circle cx="72" cy="72" r="72" stroke="none"/>
      <circle cx="72" cy="72" r="69" fill="none"/>
    </g>
    <g id="_024-plans" data-name="024-plans" transform="translate(1086 4323)">
      <path id="Trazado_174343" data-name="Trazado 174343" d="M24,24H79.341V96.949H24Z" transform="translate(-22.742 -22.742)" fill="#e9eef2"/>
      <path id="Trazado_174344" data-name="Trazado 174344" d="M56,184h45.279v10.062H56Z" transform="translate(-49.711 -157.587)" fill="#dadcde"/>
      <path id="Trazado_174345" data-name="Trazado 174345" d="M56,184H66.062v10.062H56Z" transform="translate(-49.711 -157.587)" fill="#d0d2d4"/>
      <path id="Trazado_174346" data-name="Trazado 174346" d="M56,280h45.279v10.062H56Z" transform="translate(-49.711 -238.494)" fill="#dadcde"/>
      <path id="Trazado_174347" data-name="Trazado 174347" d="M56,280H66.062v10.062H56Z" transform="translate(-49.711 -238.494)" fill="#9aa3a8"/>
      <path id="Trazado_174348" data-name="Trazado 174348" d="M56,376h45.279v10.062H56Z" transform="translate(-49.711 -319.402)" fill="#dadcde"/>
      <path id="Trazado_174349" data-name="Trazado 174349" d="M56,376H66.062v10.062H56Z" transform="translate(-49.711 -319.402)" fill="#d0d2d4"/>
      <path id="Trazado_174350" data-name="Trazado 174350" d="M62.289,56,56,59.773s-.041,7.546,6.289,11.32c0,0,6.289-3.852,6.289-11.32Z" transform="translate(-49.711 -49.711)" fill="#6ed2f0"/>
      <path id="Trazado_174351" data-name="Trazado 174351" d="M277.41,288a16.581,16.581,0,0,0-2.067.13l.017.144A16.351,16.351,0,1,0,274.9,320.5,16.351,16.351,0,1,0,277.41,288Z" transform="translate(-218.296 -245.234)" fill="#ffd33a"/>
      <path id="Trazado_174352" data-name="Trazado 174352" d="M17.258,91.465H70.083a16.405,16.405,0,0,0,2.524-.195,16.351,16.351,0,1,0,2.507-32.506c-.419,0-.84.018-1.258.05V17.258A1.258,1.258,0,0,0,72.6,16H17.258A1.258,1.258,0,0,0,16,17.258V90.207A1.258,1.258,0,0,0,17.258,91.465ZM88.949,75.114a13.858,13.858,0,0,1-8.827,12.9,16.332,16.332,0,0,0,0-25.793A13.858,13.858,0,0,1,88.949,75.114Zm-5.031,0A13.835,13.835,0,1,1,70.083,61.279,13.835,13.835,0,0,1,83.918,75.114Zm-50.31-8.8V58.763h32.7v.44a16.405,16.405,0,0,0-10,7.106ZM18.515,18.515H71.341v40.3q-.623-.047-1.258-.048t-1.258.048V57.506a1.258,1.258,0,0,0-1.258-1.258H22.289a1.258,1.258,0,0,0-1.258,1.258V67.568a1.258,1.258,0,0,0,1.258,1.258h32.7a16.2,16.2,0,0,0-.818,2.515H22.289A1.258,1.258,0,0,0,21.031,72.6V82.66a1.258,1.258,0,0,0,1.258,1.258H56.311a16.48,16.48,0,0,0,5.069,5.031H18.515ZM31.093,58.763V66.31H23.546V58.763ZM54.991,81.4H33.608V73.856H53.78q-.047.623-.048,1.258A16.26,16.26,0,0,0,54.991,81.4Zm-23.9-7.546V81.4H23.546V73.856Z" transform="translate(-16 -16)"/>
      <path id="Trazado_174353" data-name="Trazado 174353" d="M48,177.258V187.32a1.258,1.258,0,0,0,1.258,1.258H94.537a1.258,1.258,0,0,0,1.258-1.258V177.258A1.258,1.258,0,0,0,94.537,176H49.258A1.258,1.258,0,0,0,48,177.258Zm12.577,1.258h32.7v7.546h-32.7Zm-10.062,0h7.546v7.546H50.515Z" transform="translate(-42.969 -150.845)"/>
      <path id="Trazado_174354" data-name="Trazado 174354" d="M54.9,65.431a1.258,1.258,0,0,0,1.3-.008c.282-.172,6.89-4.313,6.89-12.392a1.258,1.258,0,0,0-.611-1.079l-6.289-3.773a1.258,1.258,0,0,0-1.294,0L48.61,51.952A1.258,1.258,0,0,0,48,53.024c0,.337.034,8.312,6.9,12.407Zm.645-14.706,5.011,3.006a12.649,12.649,0,0,1-5.039,9.1c-3.979-2.79-4.793-7.393-4.96-9.118Z" transform="translate(-42.969 -42.969)"/>
      <path id="Trazado_174355" data-name="Trazado 174355" d="M185.258,90.515h17.608a1.258,1.258,0,1,0,0-2.515H185.258a1.258,1.258,0,1,0,0,2.515Z" transform="translate(-157.587 -76.68)"/>
      <path id="Trazado_174356" data-name="Trazado 174356" d="M185.258,122.515h17.608a1.258,1.258,0,1,0,0-2.515H185.258a1.258,1.258,0,1,0,0,2.515Z" transform="translate(-157.587 -103.649)"/>
      <path id="Trazado_174357" data-name="Trazado 174357" d="M338.516,337.258v1.474a3.773,3.773,0,0,0,1.258,7.33,1.258,1.258,0,1,1,0,2.515h-2.515a1.258,1.258,0,1,0,0,2.515h1.258v1.258a1.258,1.258,0,0,0,2.515,0v-1.474a3.773,3.773,0,0,0-1.258-7.33,1.258,1.258,0,1,1,0-2.515h2.515a1.258,1.258,0,0,0,0-2.516h-1.258v-1.258a1.258,1.258,0,0,0-2.515,0Z" transform="translate(-285.69 -285.69)"/>
    </g>
  </g>
</svg>
