<svg xmlns="http://www.w3.org/2000/svg" width="85.523" height="48.735" viewBox="0 0 85.523 48.735">
  <g id="Grupo_156381" data-name="Grupo 156381" transform="translate(-180 -5094)">
    <g id="Grupo_156332" data-name="Grupo 156332" transform="translate(0 3995.644)">
      <path id="Trazado_99257" data-name="Trazado 99257" d="M418.688,104.917a2.239,2.239,0,1,1-2.238-2.138A2.19,2.19,0,0,1,418.688,104.917Z" transform="translate(-234.214 995.577)" fill="#0273bc"/>
      <path id="Trazado_116526" data-name="Trazado 116526" d="M418.688,104.917a2.239,2.239,0,1,1-2.238-2.138A2.19,2.19,0,0,1,418.688,104.917Z" transform="translate(-183.559 995.577)" fill="#0273bc"/>
      <path id="Trazado_99258" data-name="Trazado 99258" d="M427.134,104.917a2.239,2.239,0,1,1-2.236-2.138A2.189,2.189,0,0,1,427.134,104.917Z" transform="translate(-232.529 995.577)" fill="#0273bc"/>
      <path id="Trazado_116527" data-name="Trazado 116527" d="M427.134,104.917a2.239,2.239,0,1,1-2.236-2.138A2.189,2.189,0,0,1,427.134,104.917Z" transform="translate(-181.873 995.577)" fill="#0273bc"/>
      <path id="Trazado_99259" data-name="Trazado 99259" d="M435.58,104.917a2.239,2.239,0,1,1-2.236-2.138A2.189,2.189,0,0,1,435.58,104.917Z" transform="translate(-230.844 995.577)" fill="#0273bc"/>
      <path id="Trazado_116531" data-name="Trazado 116531" d="M435.58,104.917a2.239,2.239,0,1,1-2.236-2.138A2.189,2.189,0,0,1,435.58,104.917Z" transform="translate(-180.188 995.577)" fill="#0273bc"/>
      <path id="Trazado_99260" data-name="Trazado 99260" d="M444.027,104.917a2.239,2.239,0,1,1-2.238-2.138A2.19,2.19,0,0,1,444.027,104.917Z" transform="translate(-229.16 995.577)" fill="#0273bc"/>
      <path id="Trazado_116532" data-name="Trazado 116532" d="M444.027,104.917a2.239,2.239,0,1,1-2.238-2.138A2.19,2.19,0,0,1,444.027,104.917Z" transform="translate(-178.504 995.577)" fill="#0273bc"/>
      <path id="Trazado_99261" data-name="Trazado 99261" d="M452.473,104.917a2.239,2.239,0,1,1-2.236-2.138A2.189,2.189,0,0,1,452.473,104.917Z" transform="translate(-227.475 995.577)" fill="#0273bc"/>
    </g>
    <g id="Grupo_156331" data-name="Grupo 156331" transform="translate(0 3995.644)">
      <ellipse id="Elipse_3975" data-name="Elipse 3975" cx="2.237" cy="2.139" rx="2.237" ry="2.139" transform="translate(180 1109.47)" fill="#0273bc"/>
      <ellipse id="Elipse_4742" data-name="Elipse 4742" cx="2.237" cy="2.139" rx="2.237" ry="2.139" transform="translate(230.656 1109.47)" fill="#0273bc"/>
      <path id="Trazado_99268" data-name="Trazado 99268" d="M427.134,112.425a2.239,2.239,0,1,1-2.236-2.138A2.19,2.19,0,0,1,427.134,112.425Z" transform="translate(-232.529 999.182)" fill="#0273bc"/>
      <path id="Trazado_116528" data-name="Trazado 116528" d="M427.134,112.425a2.239,2.239,0,1,1-2.236-2.138A2.19,2.19,0,0,1,427.134,112.425Z" transform="translate(-181.873 999.182)" fill="#0273bc"/>
      <ellipse id="Elipse_3976" data-name="Elipse 3976" cx="2.237" cy="2.139" rx="2.237" ry="2.139" transform="translate(200.262 1109.47)" fill="#0273bc"/>
      <ellipse id="Elipse_4743" data-name="Elipse 4743" cx="2.237" cy="2.139" rx="2.237" ry="2.139" transform="translate(250.918 1109.47)" fill="#0273bc"/>
      <path id="Trazado_99269" data-name="Trazado 99269" d="M444.027,112.425a2.239,2.239,0,1,1-2.238-2.138A2.191,2.191,0,0,1,444.027,112.425Z" transform="translate(-229.16 999.182)" fill="#0273bc"/>
      <path id="Trazado_116533" data-name="Trazado 116533" d="M444.027,112.425a2.239,2.239,0,1,1-2.238-2.138A2.191,2.191,0,0,1,444.027,112.425Z" transform="translate(-178.504 999.182)" fill="#0273bc"/>
      <path id="Trazado_99270" data-name="Trazado 99270" d="M452.473,112.425a2.239,2.239,0,1,1-2.236-2.138A2.19,2.19,0,0,1,452.473,112.425Z" transform="translate(-227.475 999.182)" fill="#0273bc"/>
    </g>
    <g id="Grupo_156330" data-name="Grupo 156330" transform="translate(0 3995.644)">
      <path id="Trazado_99274" data-name="Trazado 99274" d="M418.688,119.934a2.239,2.239,0,1,1-2.238-2.14A2.191,2.191,0,0,1,418.688,119.934Z" transform="translate(-234.214 1002.789)" fill="#0273bc"/>
      <path id="Trazado_116529" data-name="Trazado 116529" d="M418.688,119.934a2.239,2.239,0,1,1-2.238-2.14A2.191,2.191,0,0,1,418.688,119.934Z" transform="translate(-183.559 1002.789)" fill="#0273bc"/>
      <path id="Trazado_99275" data-name="Trazado 99275" d="M427.134,119.934a2.239,2.239,0,1,1-2.236-2.14A2.19,2.19,0,0,1,427.134,119.934Z" transform="translate(-232.529 1002.789)" fill="#0273bc"/>
      <path id="Trazado_116530" data-name="Trazado 116530" d="M427.134,119.934a2.239,2.239,0,1,1-2.236-2.14A2.19,2.19,0,0,1,427.134,119.934Z" transform="translate(-181.873 1002.789)" fill="#0273bc"/>
      <path id="Trazado_99276" data-name="Trazado 99276" d="M435.58,119.934a2.239,2.239,0,1,1-2.236-2.14A2.191,2.191,0,0,1,435.58,119.934Z" transform="translate(-230.844 1002.789)" fill="#0273bc"/>
      <path id="Trazado_116534" data-name="Trazado 116534" d="M435.58,119.934a2.239,2.239,0,1,1-2.236-2.14A2.191,2.191,0,0,1,435.58,119.934Z" transform="translate(-180.188 1002.789)" fill="#0273bc"/>
      <path id="Trazado_99277" data-name="Trazado 99277" d="M444.027,119.934a2.239,2.239,0,1,1-2.238-2.14A2.191,2.191,0,0,1,444.027,119.934Z" transform="translate(-229.16 1002.789)" fill="#0273bc"/>
      <path id="Trazado_116535" data-name="Trazado 116535" d="M444.027,119.934a2.239,2.239,0,1,1-2.238-2.14A2.191,2.191,0,0,1,444.027,119.934Z" transform="translate(-178.504 1002.789)" fill="#0273bc"/>
      <path id="Trazado_99278" data-name="Trazado 99278" d="M452.473,119.934a2.239,2.239,0,1,1-2.236-2.14A2.19,2.19,0,0,1,452.473,119.934Z" transform="translate(-227.475 1002.789)" fill="#0273bc"/>
    </g>
    <g id="Grupo_156329" data-name="Grupo 156329" transform="translate(0 3995.644)">
      <ellipse id="Elipse_3980" data-name="Elipse 3980" cx="2.237" cy="2.139" rx="2.237" ry="2.139" transform="translate(180 1131.699)" fill="#0273bc"/>
      <ellipse id="Elipse_4744" data-name="Elipse 4744" cx="2.237" cy="2.139" rx="2.237" ry="2.139" transform="translate(230.656 1131.699)" fill="#0273bc"/>
      <path id="Trazado_99285" data-name="Trazado 99285" d="M427.134,127.442a2.239,2.239,0,1,1-2.236-2.14A2.189,2.189,0,0,1,427.134,127.442Z" transform="translate(-232.529 1006.396)" fill="#0273bc"/>
      <path id="Trazado_116536" data-name="Trazado 116536" d="M427.134,127.442a2.239,2.239,0,1,1-2.236-2.14A2.189,2.189,0,0,1,427.134,127.442Z" transform="translate(-181.873 1006.396)" fill="#0273bc"/>
      <ellipse id="Elipse_3981" data-name="Elipse 3981" cx="2.237" cy="2.139" rx="2.237" ry="2.139" transform="translate(200.262 1131.699)" fill="#0273bc"/>
      <ellipse id="Elipse_4745" data-name="Elipse 4745" cx="2.237" cy="2.139" rx="2.237" ry="2.139" transform="translate(250.918 1131.699)" fill="#0273bc"/>
      <path id="Trazado_99286" data-name="Trazado 99286" d="M444.027,127.442a2.239,2.239,0,1,1-2.238-2.14A2.189,2.189,0,0,1,444.027,127.442Z" transform="translate(-229.16 1006.396)" fill="#0273bc"/>
      <path id="Trazado_116537" data-name="Trazado 116537" d="M444.027,127.442a2.239,2.239,0,1,1-2.238-2.14A2.189,2.189,0,0,1,444.027,127.442Z" transform="translate(-178.504 1006.396)" fill="#0273bc"/>
      <path id="Trazado_99287" data-name="Trazado 99287" d="M452.473,127.442a2.239,2.239,0,1,1-2.236-2.14A2.189,2.189,0,0,1,452.473,127.442Z" transform="translate(-227.475 1006.396)" fill="#0273bc"/>
    </g>
    <g id="Grupo_156328" data-name="Grupo 156328" transform="translate(0 3995.644)">
      <ellipse id="Elipse_3985" data-name="Elipse 3985" cx="2.237" cy="2.139" rx="2.237" ry="2.139" transform="translate(180 1142.813)" fill="#0273bc"/>
      <ellipse id="Elipse_4746" data-name="Elipse 4746" cx="2.237" cy="2.139" rx="2.237" ry="2.139" transform="translate(230.656 1142.813)" fill="#0273bc"/>
      <path id="Trazado_99291" data-name="Trazado 99291" d="M427.134,134.95a2.239,2.239,0,1,1-2.236-2.14A2.189,2.189,0,0,1,427.134,134.95Z" transform="translate(-232.529 1010.002)" fill="#0273bc"/>
      <path id="Trazado_116538" data-name="Trazado 116538" d="M427.134,134.95a2.239,2.239,0,1,1-2.236-2.14A2.189,2.189,0,0,1,427.134,134.95Z" transform="translate(-181.873 1010.002)" fill="#0273bc"/>
      <ellipse id="Elipse_3986" data-name="Elipse 3986" cx="2.237" cy="2.139" rx="2.237" ry="2.139" transform="translate(200.262 1142.813)" fill="#0273bc"/>
      <ellipse id="Elipse_4747" data-name="Elipse 4747" cx="2.237" cy="2.139" rx="2.237" ry="2.139" transform="translate(250.918 1142.813)" fill="#0273bc"/>
      <path id="Trazado_99292" data-name="Trazado 99292" d="M444.027,134.95a2.239,2.239,0,1,1-2.238-2.14A2.189,2.189,0,0,1,444.027,134.95Z" transform="translate(-229.16 1010.002)" fill="#0273bc"/>
      <path id="Trazado_116539" data-name="Trazado 116539" d="M444.027,134.95a2.239,2.239,0,1,1-2.238-2.14A2.189,2.189,0,0,1,444.027,134.95Z" transform="translate(-178.504 1010.002)" fill="#0273bc"/>
      <path id="Trazado_99293" data-name="Trazado 99293" d="M452.473,134.95a2.239,2.239,0,1,1-2.236-2.14A2.189,2.189,0,0,1,452.473,134.95Z" transform="translate(-227.475 1010.002)" fill="#0273bc"/>
    </g>
  </g>
</svg>
