<svg id="Grupo_156335" data-name="Grupo 156335" xmlns="http://www.w3.org/2000/svg" xmlns:xlink="http://www.w3.org/1999/xlink" width="295" height="120.112" viewBox="0 0 295 120.112">
  <defs>
    <clipPath id="clip-path">
      <rect id="Rectángulo_36770" data-name="Rectángulo 36770" width="295" height="120.112" fill="none"/>
    </clipPath>
  </defs>
  <g id="Grupo_156334" data-name="Grupo 156334" transform="translate(0 0)" clip-path="url(#clip-path)">
    <path id="Trazado_116564" data-name="Trazado 116564" d="M88.584,99.806a38.991,38.991,0,0,0-4.371.033,3.241,3.241,0,0,1-3.583-2.274c-.772-1.768-1.316-3.631-2.045-5.417-1.474-3.609-2.936-7.224-4.528-10.781C71.749,76.209,69.442,71.042,66.9,66a33.17,33.17,0,0,0-4.239-6.079,16.361,16.361,0,0,0-3.373-2.643c-1.92-1.336-2.183-2.85-.6-4.514a28.242,28.242,0,0,1,7.417-5.687c1.573-.813,3.193-1.543,4.824-2.235a2.81,2.81,0,0,1,3.374.826,35.362,35.362,0,0,1,3.165,4.291,70.348,70.348,0,0,1,7,16.1c.634,1.987,1.177,4.005,1.727,6.018.239.869.933,1.489,1.644.5,1.094-1.516,2.09-3.1,3.13-4.659,2.486-3.721,4.915-7.481,7.48-11.147,2.041-2.918,4.221-5.74,6.388-8.567q2.559-3.338,5.242-6.579,3.767-4.537,7.635-8.994c1.323-1.531,2.7-3.016,4.091-4.488q3.816-4.052,7.671-8.062c2.261-2.354,4.512-4.719,6.834-7.012q3.059-3.02,6.271-5.885A35.17,35.17,0,0,1,150.3,1.43,28.554,28.554,0,0,1,154.024.063a2.136,2.136,0,0,1,1.059.012c.781.162,1.563.533,1.6,1.378a2.529,2.529,0,0,1-.68,1.751c-1.337,1.281-2.8,2.429-4.216,3.63-.731.62-1.5,1.2-2.183,1.87-3.523,3.431-7.155,6.761-10.5,10.36-3.367,3.629-6.577,7.424-9.6,11.342-3.434,4.45-6.686,9.048-9.823,13.712-2.156,3.209-4.055,6.6-5.929,9.983-1.892,3.418-3.76,6.863-5.371,10.418-2.21,4.875-4.262,9.825-6.211,14.812a112.15,112.15,0,0,0-4.948,16.152c-.318,1.412-.58,2.842-1.834,3.763a2.637,2.637,0,0,1-1.363.536c-1.813.06-3.629.024-5.444.024" transform="translate(7.301 0)" fill="#8eb036" fill-rule="evenodd"/>
    <path id="Trazado_116565" data-name="Trazado 116565" d="M216.843,94.467H209.43c-.018-.25-.047-.466-.048-.683-.069-10.036-.087-20.071-.222-30.1a15.276,15.276,0,0,0-11.5-14.013,14.681,14.681,0,0,0-13.223,3.143,15.129,15.129,0,0,0-5.364,9.485,20.758,20.758,0,0,0-.037,3.413q0,14.05,0,28.1c0,.19-.016.381-.028.633h-7.353V93.275c0-9.139.028-18.279-.014-27.419a16.992,16.992,0,0,0-3.106-10.239,14.558,14.558,0,0,0-10.6-6.263c-5.321-.57-9.462,1.587-12.863,5.359a14.461,14.461,0,0,0-3.78,10.03c.034,9.5.01,18.994.01,28.489v1.211H134V44.6h7.279v4c4.893-5.106,10.743-7.349,17.626-6.574s11.97,4.515,15.858,10c1.156-1.289,2.216-2.649,3.455-3.819a22.77,22.77,0,0,1,12.291-6.034,21.641,21.641,0,0,1,10.015.649A23.269,23.269,0,0,1,208.278,47a22.359,22.359,0,0,1,6.062,7.685,18.924,18.924,0,0,1,2.03,7.093c.086,1.314.185,2.631.188,3.947.018,7.714-.009,15.429.021,23.142.007,1.831.168,3.66.263,5.6" transform="translate(16.967 5.301)" fill="#227fa1" fill-rule="evenodd"/>
    <path id="Trazado_116566" data-name="Trazado 116566" d="M267.975,94.468h-7.116v-6.23c-1.732,1.381-3.317,2.827-5.077,4.007a26.332,26.332,0,0,1-11.711,4.431,27.4,27.4,0,0,1-19.434-4.708,26.67,26.67,0,0,1-8.517-9.663,27.563,27.563,0,0,1-3.158-11.755,27.47,27.47,0,0,1,41.724-24.723,27.542,27.542,0,0,1,11.247,13.044,20.565,20.565,0,0,1,1.884,7.721c.127,6.271.159,12.545.211,18.818.025,2.884,0,5.767,0,8.651a3.262,3.262,0,0,1-.053.407m-7.133-24.031c.012-12.394-9.1-21.095-19.583-21.42a20.322,20.322,0,0,0-21.214,20.354,20.413,20.413,0,0,0,40.8,1.067" transform="translate(26.961 5.292)" fill="#227fa1" fill-rule="evenodd"/>
    <path id="Trazado_116567" data-name="Trazado 116567" d="M25.1,94.466H17.973V44.578h7.115v4.108A18.2,18.2,0,0,1,36.45,42.232,21.633,21.633,0,0,1,53.121,45.98,22.652,22.652,0,0,1,62.6,60.771a22.423,22.423,0,0,1,.222,4.135c.033,2.235-.006,4.472.012,6.709q.084,10.919.192,21.837c0,.318,0,.635,0,1H55.644V93.44c0-4.57.025-9.14-.006-13.709-.038-5.595-.048-11.192-.22-16.782a13.266,13.266,0,0,0-3.113-7.838A14.941,14.941,0,0,0,45.7,50.245a14.074,14.074,0,0,0-12.955,1.263,16.356,16.356,0,0,0-7.624,11.355,4.708,4.708,0,0,0-.016.874q0,14.728,0,29.459Z" transform="translate(2.276 5.3)" fill="#227fa1" fill-rule="evenodd"/>
    <path id="Trazado_116568" data-name="Trazado 116568" d="M.141,39.237c1.97,2.434,4.207,3.89,7.116,3.854a8.486,8.486,0,0,0,7.026-3.744c.023.466.047.738.047,1.008q0,25.609.025,51.22a3.8,3.8,0,0,1-3.509,3.465c-2.332-.037-4.67-.1-7,.018-2.066.1-3.736-2.083-3.717-3.742.033-2.817.009-5.635.009-8.454V39.237Z" transform="translate(0.017 4.968)" fill="#227fa1" fill-rule="evenodd"/>
    <path id="Trazado_116569" data-name="Trazado 116569" d="M129.131,94.2c-2.23,0-4.395,0-6.561,0-.154,0-.309-.021-.509-.035V44.272h7.071Z" transform="translate(15.455 5.606)" fill="#227fa1" fill-rule="evenodd"/>
    <path id="Trazado_116570" data-name="Trazado 116570" d="M14.332,35.667c.311,3.648-3.32,7.193-7.144,7.084a7.137,7.137,0,1,1,.391-14.266c3.509.152,7.008,3.205,6.753,7.182" transform="translate(0.016 3.606)" fill="#227fa1" fill-rule="evenodd"/>
    <path id="Trazado_116571" data-name="Trazado 116571" d="M148.395,28.521A6.608,6.608,0,0,1,155.1,35.1a6.694,6.694,0,0,1-13.388.012,6.541,6.541,0,0,1,6.681-6.593" transform="translate(17.944 3.61)" fill="#4d95b2" fill-rule="evenodd"/>
    <path id="Trazado_116572" data-name="Trazado 116572" d="M125.981,41.742a6.491,6.491,0,0,1-6.7-6.564,6.694,6.694,0,1,1,13.388.062,6.577,6.577,0,0,1-6.689,6.5" transform="translate(15.104 3.608)" fill="#227fa1" fill-rule="evenodd"/>
    <path id="Trazado_116573" data-name="Trazado 116573" d="M170.825,28.522a6.525,6.525,0,0,1,6.693,6.586,6.62,6.62,0,0,1-7.03,6.658,6.749,6.749,0,0,1-6.369-6.679c-.059-3.38,3.331-6.876,6.706-6.566" transform="translate(20.781 3.609)" fill="#64a3ba" fill-rule="evenodd"/>
    <path id="Trazado_116574" data-name="Trazado 116574" d="M193.314,28.521a6.631,6.631,0,0,1,6.649,6.609,6.7,6.7,0,1,1-6.649-6.609" transform="translate(23.623 3.61)" fill="#7ab0c5" fill-rule="evenodd"/>
    <path id="Trazado_116575" data-name="Trazado 116575" d="M222.24,35.14c.37,3.282-2.921,6.764-6.734,6.641a6.65,6.65,0,1,1,.4-13.294c3.4.082,6.684,3.29,6.33,6.653" transform="translate(26.465 3.607)" fill="#8dbccc" fill-rule="evenodd"/>
    <path id="Trazado_116576" data-name="Trazado 116576" d="M244.68,35.218c.286,3.418-3.144,6.665-6.717,6.564a6.759,6.759,0,0,1-6.505-6.728,6.658,6.658,0,0,1,6.867-6.549,6.59,6.59,0,0,1,6.355,6.714" transform="translate(29.307 3.609)" fill="#a2cad8" fill-rule="evenodd"/>
    <path id="Trazado_116577" data-name="Trazado 116577" d="M1.214,94.711H.109A.109.109,0,0,0,0,94.82v10.194a.109.109,0,0,0,.109.109H1.214a.109.109,0,0,0,.109-.109V94.82a.11.11,0,0,0-.109-.109" transform="translate(0 11.992)" fill="#227fa1"/>
    <path id="Trazado_116578" data-name="Trazado 116578" d="M6.821,97.788a1.985,1.985,0,0,0-.705-.531,2.238,2.238,0,0,0-.944-.2,2.167,2.167,0,0,0-1.166.317A2.339,2.339,0,0,0,3.356,98v-.664a.108.108,0,0,0-.108-.109H2.323a.109.109,0,0,0-.109.109v7.384a.109.109,0,0,0,.109.109H3.345a.109.109,0,0,0,.109-.109v-4.038a3.022,3.022,0,0,1,.413-1.818,1.312,1.312,0,0,1,1.091-.508,1.057,1.057,0,0,1,.623.186,1.088,1.088,0,0,1,.394.53,3.624,3.624,0,0,1,.133,1.153v4.5a.108.108,0,0,0,.108.109H7.24a.108.108,0,0,0,.108-.109v-4.54a6.8,6.8,0,0,0-.128-1.542,2.157,2.157,0,0,0-.4-.846" transform="translate(0.28 12.289)" fill="#227fa1"/>
    <path id="Trazado_116579" data-name="Trazado 116579" d="M11.679,100.784a8.362,8.362,0,0,0-1.673-.657A5.081,5.081,0,0,1,8.922,99.7a.652.652,0,0,1-.269-.557.728.728,0,0,1,.286-.6,1.459,1.459,0,0,1,.926-.243,1.1,1.1,0,0,1,1.207,1.114.1.1,0,0,0,.042.073.1.1,0,0,0,.083.021l1-.167a.109.109,0,0,0,.09-.123A2.952,2.952,0,0,0,11.9,98a1.974,1.974,0,0,0-.826-.692,2.841,2.841,0,0,0-1.233-.255,2.411,2.411,0,0,0-1.752.622,2.167,2.167,0,0,0-.638,1.616,2.218,2.218,0,0,0,.234,1.03,1.855,1.855,0,0,0,.665.73,7.579,7.579,0,0,0,1.626.64,3.665,3.665,0,0,1,1.007.4.7.7,0,0,1,.272.6.969.969,0,0,1-.329.757,1.382,1.382,0,0,1-.957.3,1.392,1.392,0,0,1-.994-.352,1.735,1.735,0,0,1-.459-1.1.107.107,0,0,0-.13-.095l-1.022.195a.109.109,0,0,0-.088.123,2.491,2.491,0,0,0,2.633,2.471,2.631,2.631,0,0,0,1.908-.685,2.406,2.406,0,0,0,.7-1.792,2.3,2.3,0,0,0-.219-1.034,1.742,1.742,0,0,0-.621-.7" transform="translate(0.921 12.289)" fill="#227fa1"/>
    <path id="Trazado_116580" data-name="Trazado 116580" d="M14.969,103.782a.114.114,0,0,0-.083-.02,2.618,2.618,0,0,1-.434.047.4.4,0,0,1-.4-.192,1.848,1.848,0,0,1-.078-.721v-4.21H14.9a.108.108,0,0,0,.109-.108V97.6A.109.109,0,0,0,14.9,97.5h-.926V95.024a.108.108,0,0,0-.061-.1.1.1,0,0,0-.113.009l-1.023.75a.111.111,0,0,0-.044.089V97.5H12.1a.109.109,0,0,0-.109.109v.973a.108.108,0,0,0,.109.108h.642v4.139a5.642,5.642,0,0,0,.127,1.5,1.182,1.182,0,0,0,.492.639,1.68,1.68,0,0,0,.922.23,3.123,3.123,0,0,0,.793-.116.108.108,0,0,0,.08-.118l-.139-1.106a.114.114,0,0,0-.044-.073" transform="translate(1.518 12.018)" fill="#227fa1"/>
    <path id="Trazado_116581" data-name="Trazado 116581" d="M16.115,94.711H15.093a.109.109,0,0,0-.109.109v1.439a.11.11,0,0,0,.109.11h1.022a.11.11,0,0,0,.109-.11V94.82a.11.11,0,0,0-.109-.109" transform="translate(1.897 11.992)" fill="#227fa1"/>
    <path id="Trazado_116582" data-name="Trazado 116582" d="M16.115,97.2H15.093a.109.109,0,0,0-.109.109V104.7a.109.109,0,0,0,.109.109h1.022a.109.109,0,0,0,.109-.109V97.314a.109.109,0,0,0-.109-.109" transform="translate(1.897 12.308)" fill="#227fa1"/>
    <path id="Trazado_116583" data-name="Trazado 116583" d="M19.446,103.782a.114.114,0,0,0-.083-.02c-.5.089-.724.055-.83-.144a1.848,1.848,0,0,1-.078-.721v-4.21h.926a.109.109,0,0,0,.11-.108V97.6a.11.11,0,0,0-.11-.109h-.926V95.024a.11.11,0,0,0-.175-.089l-1.022.75a.114.114,0,0,0-.044.089V97.5h-.642a.109.109,0,0,0-.109.109v.973a.109.109,0,0,0,.109.108h.642v4.139a5.642,5.642,0,0,0,.127,1.5,1.188,1.188,0,0,0,.492.639,1.677,1.677,0,0,0,.922.23,3.108,3.108,0,0,0,.792-.116.108.108,0,0,0,.081-.118l-.139-1.106a.109.109,0,0,0-.044-.073" transform="translate(2.085 12.018)" fill="#227fa1"/>
    <path id="Trazado_116584" data-name="Trazado 116584" d="M24.455,97.2H23.426a.109.109,0,0,0-.109.109v3.956a3.192,3.192,0,0,1-.381,1.845,1.354,1.354,0,0,1-1.123.563,1.023,1.023,0,0,1-.64-.211,1.05,1.05,0,0,1-.385-.563,6.4,6.4,0,0,1-.112-1.5v-4.1a.108.108,0,0,0-.108-.109H19.546a.109.109,0,0,0-.109.109v4.575a6.166,6.166,0,0,0,.175,1.643,1.955,1.955,0,0,0,.717,1.034,2.082,2.082,0,0,0,1.29.408,2.056,2.056,0,0,0,1.145-.33,2.547,2.547,0,0,0,.666-.656v.71a.109.109,0,0,0,.109.109h.917a.109.109,0,0,0,.109-.109V97.314a.109.109,0,0,0-.109-.109" transform="translate(2.461 12.308)" fill="#227fa1"/>
    <path id="Trazado_116585" data-name="Trazado 116585" d="M27.386,103.782a.115.115,0,0,0-.083-.02c-.5.089-.724.055-.83-.144a1.848,1.848,0,0,1-.078-.721v-4.21h.927a.109.109,0,0,0,.109-.108V97.6a.109.109,0,0,0-.109-.109h-.927V95.024a.11.11,0,0,0-.175-.089l-1.021.75a.112.112,0,0,0-.045.089V97.5h-.642a.109.109,0,0,0-.109.109v.973a.109.109,0,0,0,.109.108h.642v4.139a5.642,5.642,0,0,0,.127,1.5,1.182,1.182,0,0,0,.492.639,1.68,1.68,0,0,0,.922.23,3.123,3.123,0,0,0,.793-.116.107.107,0,0,0,.08-.118l-.139-1.106a.109.109,0,0,0-.044-.073" transform="translate(3.09 12.018)" fill="#227fa1"/>
    <path id="Trazado_116586" data-name="Trazado 116586" d="M30,97.057a2.64,2.64,0,0,0-2.118,1.013,5.658,5.658,0,0,0,.008,5.907,2.714,2.714,0,0,0,4.232,0,4.724,4.724,0,0,0,.825-3.031,4.4,4.4,0,0,0-.838-2.881A2.648,2.648,0,0,0,30,97.057m.028,6.689a1.446,1.446,0,0,1-1.205-.656,4.536,4.536,0,0,1-.007-4.128,1.393,1.393,0,0,1,1.157-.659,1.445,1.445,0,0,1,1.205.656,3.469,3.469,0,0,1,.5,2.063,3.508,3.508,0,0,1-.5,2.062,1.4,1.4,0,0,1-1.154.662" transform="translate(3.426 12.289)" fill="#227fa1"/>
    <path id="Trazado_116587" data-name="Trazado 116587" d="M42.133,94.711H41.077a.11.11,0,0,0-.109.109v7.593l-4.19-7.645a.111.111,0,0,0-.1-.057H35.548a.11.11,0,0,0-.109.109v10.194a.109.109,0,0,0,.109.109h1.064a.109.109,0,0,0,.109-.109V97.419l4.183,7.647a.108.108,0,0,0,.1.056h1.133a.109.109,0,0,0,.109-.109V94.82a.11.11,0,0,0-.109-.109" transform="translate(4.487 11.992)" fill="#227fa1"/>
    <path id="Trazado_116588" data-name="Trazado 116588" d="M47.686,103.816a21.394,21.394,0,0,1-.065-2.192V99.955a6.39,6.39,0,0,0-.146-1.572,1.65,1.65,0,0,0-.73-.95,2.8,2.8,0,0,0-1.555-.376,2.992,2.992,0,0,0-1.95.568,2.922,2.922,0,0,0-.911,1.8.114.114,0,0,0,.019.082.112.112,0,0,0,.071.045l1.008.166a.106.106,0,0,0,.124-.086,1.854,1.854,0,0,1,.486-1.052,1.544,1.544,0,0,1,1-.273,1.368,1.368,0,0,1,1.094.41,1.52,1.52,0,0,1,.243.989l-.006.248a8.184,8.184,0,0,1-1.743.4,3.91,3.91,0,0,0-1.432.425,2.09,2.09,0,0,0-.764.812,2.5,2.5,0,0,0-.276,1.186,2.2,2.2,0,0,0,.595,1.613,2.137,2.137,0,0,0,1.586.6,2.72,2.72,0,0,0,1.2-.283,3.783,3.783,0,0,0,.941-.669,2.949,2.949,0,0,0,.19.718.108.108,0,0,0,.1.066h1.074a.109.109,0,0,0,.084-.18,3.189,3.189,0,0,1-.24-.83m-1.319-2.635v.29a3.3,3.3,0,0,1-.213,1.341,1.678,1.678,0,0,1-.63.717,1.732,1.732,0,0,1-.94.267,1.146,1.146,0,0,1-.828-.285,1,1,0,0,1-.294-.766,1.125,1.125,0,0,1,.13-.549.9.9,0,0,1,.357-.362,3.144,3.144,0,0,1,.87-.242,7.26,7.26,0,0,0,1.548-.41" transform="translate(5.337 12.289)" fill="#227fa1"/>
    <path id="Trazado_116589" data-name="Trazado 116589" d="M53.01,102.065,52,101.9a.109.109,0,0,0-.125.095,2.344,2.344,0,0,1-.5,1.333,1.192,1.192,0,0,1-.917.413,1.324,1.324,0,0,1-1.131-.628,3.786,3.786,0,0,1-.456-2.12,3.541,3.541,0,0,1,.475-2.067,1.391,1.391,0,0,1,1.168-.628,1.061,1.061,0,0,1,.791.338,2.079,2.079,0,0,1,.479,1.062.11.11,0,0,0,.126.087l.995-.181A.108.108,0,0,0,53,99.485a2.984,2.984,0,0,0-.858-1.815,2.377,2.377,0,0,0-1.656-.613,2.557,2.557,0,0,0-2.076,1,4.668,4.668,0,0,0-.8,2.958,4.735,4.735,0,0,0,.792,2.956,2.5,2.5,0,0,0,2.043,1.02,2.412,2.412,0,0,0,1.756-.728,3.487,3.487,0,0,0,.9-2.08.109.109,0,0,0-.091-.122" transform="translate(6.028 12.289)" fill="#227fa1"/>
    <path id="Trazado_116590" data-name="Trazado 116590" d="M53.84,94.711H52.818a.11.11,0,0,0-.109.109v1.439a.11.11,0,0,0,.109.11H53.84a.11.11,0,0,0,.109-.11V94.82a.109.109,0,0,0-.109-.109" transform="translate(6.674 11.992)" fill="#227fa1"/>
    <path id="Trazado_116591" data-name="Trazado 116591" d="M53.84,97.2H52.818a.109.109,0,0,0-.109.109V104.7a.109.109,0,0,0,.109.109H53.84a.109.109,0,0,0,.109-.109V97.314a.109.109,0,0,0-.109-.109" transform="translate(6.674 12.308)" fill="#227fa1"/>
    <path id="Trazado_116592" data-name="Trazado 116592" d="M57.258,97.057A2.639,2.639,0,0,0,55.14,98.07a5.658,5.658,0,0,0,.008,5.907,2.714,2.714,0,0,0,4.232,0,4.724,4.724,0,0,0,.825-3.031,4.4,4.4,0,0,0-.838-2.881,2.648,2.648,0,0,0-2.108-1.012m.028,6.689a1.443,1.443,0,0,1-1.205-.656,4.526,4.526,0,0,1-.007-4.128A1.391,1.391,0,0,1,57.23,98.3a1.447,1.447,0,0,1,1.207.656,4.51,4.51,0,0,1,0,4.125,1.4,1.4,0,0,1-1.153.662" transform="translate(6.877 12.289)" fill="#227fa1"/>
    <path id="Trazado_116593" data-name="Trazado 116593" d="M64.675,97.788a1.985,1.985,0,0,0-.705-.531,2.238,2.238,0,0,0-.944-.2,2.167,2.167,0,0,0-1.166.317A2.339,2.339,0,0,0,61.21,98v-.664a.108.108,0,0,0-.108-.109h-.925a.109.109,0,0,0-.109.109v7.384a.109.109,0,0,0,.109.109H61.2a.109.109,0,0,0,.109-.109v-4.038a3.012,3.012,0,0,1,.415-1.818,1.308,1.308,0,0,1,1.089-.508,1.057,1.057,0,0,1,.623.186,1.081,1.081,0,0,1,.394.53,3.623,3.623,0,0,1,.133,1.153v4.5a.108.108,0,0,0,.108.109h1.023a.108.108,0,0,0,.108-.109v-4.54a6.8,6.8,0,0,0-.128-1.542,2.157,2.157,0,0,0-.4-.846" transform="translate(7.606 12.289)" fill="#227fa1"/>
    <path id="Trazado_116594" data-name="Trazado 116594" d="M70.7,103.816a21.4,21.4,0,0,1-.065-2.192V99.955a6.391,6.391,0,0,0-.146-1.572,1.653,1.653,0,0,0-.729-.95,2.81,2.81,0,0,0-1.556-.376,2.992,2.992,0,0,0-1.95.568,2.917,2.917,0,0,0-.911,1.8.111.111,0,0,0,.09.127l1.008.166a.108.108,0,0,0,.125-.086,1.854,1.854,0,0,1,.484-1.052,1.544,1.544,0,0,1,1-.273,1.367,1.367,0,0,1,1.094.41,1.52,1.52,0,0,1,.243.989l0,.248a8.2,8.2,0,0,1-1.744.4,3.911,3.911,0,0,0-1.432.425,2.087,2.087,0,0,0-.763.812,2.5,2.5,0,0,0-.277,1.186,2.2,2.2,0,0,0,.595,1.613,2.137,2.137,0,0,0,1.586.6,2.716,2.716,0,0,0,1.2-.283,3.783,3.783,0,0,0,.941-.669,2.949,2.949,0,0,0,.19.718.108.108,0,0,0,.1.066h1.074a.106.106,0,0,0,.112-.108.108.108,0,0,0-.027-.072,3.234,3.234,0,0,1-.24-.83m-1.319-2.635v.29a3.3,3.3,0,0,1-.212,1.341,1.68,1.68,0,0,1-.631.717,1.73,1.73,0,0,1-.94.267,1.147,1.147,0,0,1-.828-.285,1.008,1.008,0,0,1-.294-.766,1.125,1.125,0,0,1,.13-.549.9.9,0,0,1,.357-.362,3.156,3.156,0,0,1,.87-.242,7.242,7.242,0,0,0,1.548-.41" transform="translate(8.251 12.289)" fill="#227fa1"/>
    <path id="Trazado_116595" data-name="Trazado 116595" d="M71.99,94.711H70.968a.11.11,0,0,0-.109.109v10.194a.109.109,0,0,0,.109.109H71.99a.109.109,0,0,0,.109-.109V94.82a.109.109,0,0,0-.109-.109" transform="translate(8.972 11.992)" fill="#227fa1"/>
    <path id="Trazado_116596" data-name="Trazado 116596" d="M80.4,94.711H79.364a.109.109,0,0,0-.108.109v3.308a2.172,2.172,0,0,0-.553-.49,1.875,1.875,0,0,0-1-.284,2.245,2.245,0,0,0-1.353.445,2.984,2.984,0,0,0-.963,1.347,5.945,5.945,0,0,0-.355,2.175,4.689,4.689,0,0,0,.8,2.915,2.407,2.407,0,0,0,1.94,1.055,1.834,1.834,0,0,0,1-.3,2.051,2.051,0,0,0,.549-.525v.548a.108.108,0,0,0,.108.109h.96a.109.109,0,0,0,.109-.109V94.82a.11.11,0,0,0-.109-.109m-1.045,6.757a3.382,3.382,0,0,1-.46,1.952,1.271,1.271,0,0,1-1.047.622,1.306,1.306,0,0,1-1.069-.649,3.6,3.6,0,0,1-.478-2.065,3.821,3.821,0,0,1,.447-2.091,1.23,1.23,0,0,1,1.024-.638,1.306,1.306,0,0,1,1.12.666,4.061,4.061,0,0,1,.462,2.2" transform="translate(9.501 11.992)" fill="#227fa1"/>
    <path id="Trazado_116597" data-name="Trazado 116597" d="M83.409,97.057A2.611,2.611,0,0,0,81.29,98.1a4.709,4.709,0,0,0-.826,2.986,4.488,4.488,0,0,0,.82,2.888,2.669,2.669,0,0,0,2.166,1.017,2.635,2.635,0,0,0,1.786-.628,3.321,3.321,0,0,0,.991-1.843.108.108,0,0,0-.09-.131l-1.057-.16a.106.106,0,0,0-.121.077c-.29.968-.781,1.438-1.5,1.438a1.442,1.442,0,0,1-1.167-.593,3,3,0,0,1-.546-1.7h4.4a.11.11,0,0,0,.109-.107l.007-.337a4.62,4.62,0,0,0-.809-2.925,2.523,2.523,0,0,0-2.047-1.029M83.4,98.3a1.379,1.379,0,0,1,1.171.643,2.587,2.587,0,0,1,.38,1.26H81.808a2.347,2.347,0,0,1,.5-1.367A1.374,1.374,0,0,1,83.4,98.3" transform="translate(10.188 12.289)" fill="#227fa1"/>
    <path id="Trazado_116598" data-name="Trazado 116598" d="M95.853,94.711H94.726a.111.111,0,0,0-.1.077L92.359,102.2c-.123.407-.238.82-.341,1.235-.1-.4-.212-.815-.335-1.235L89.5,94.789a.11.11,0,0,0-.1-.078H88.2a.108.108,0,0,0-.1.142l3.246,10.195a.109.109,0,0,0,.1.075h1.137a.109.109,0,0,0,.1-.074l3.267-10.195a.1.1,0,0,0-.016-.1.108.108,0,0,0-.088-.045" transform="translate(11.155 11.992)" fill="#227fa1"/>
    <path id="Trazado_116599" data-name="Trazado 116599" d="M96.229,94.711H95.207a.11.11,0,0,0-.109.109v1.439a.11.11,0,0,0,.109.11h1.022a.11.11,0,0,0,.109-.11V94.82a.109.109,0,0,0-.109-.109" transform="translate(12.041 11.992)" fill="#227fa1"/>
    <path id="Trazado_116600" data-name="Trazado 116600" d="M96.229,97.2H95.207a.109.109,0,0,0-.109.109V104.7a.109.109,0,0,0,.109.109h1.022a.109.109,0,0,0,.109-.109V97.314a.109.109,0,0,0-.109-.109" transform="translate(12.041 12.308)" fill="#227fa1"/>
    <path id="Trazado_116601" data-name="Trazado 116601" d="M102.131,97.224h-.945a.109.109,0,0,0-.109.109v.546a2.383,2.383,0,0,0-.617-.545,2,2,0,0,0-1.032-.277,2.347,2.347,0,0,0-1.382.437,3,3,0,0,0-.987,1.355,5.649,5.649,0,0,0-.37,2.12,4.623,4.623,0,0,0,.844,2.9,2.313,2.313,0,0,0,1.887.959,1.924,1.924,0,0,0,.979-.256,2.34,2.34,0,0,0,.586-.493,7.375,7.375,0,0,1-.086,1.3,1.387,1.387,0,0,1-1.514,1.2,1.369,1.369,0,0,1-.9-.264,1.2,1.2,0,0,1-.38-.815.11.11,0,0,0-.089-.095l-1-.18a.108.108,0,0,0-.088.023.106.106,0,0,0-.039.083,2.412,2.412,0,0,0,.643,1.831,2.561,2.561,0,0,0,1.885.665,2.8,2.8,0,0,0,1.583-.439,2.47,2.47,0,0,0,.953-1.2,7.517,7.517,0,0,0,.285-2.468V97.333a.109.109,0,0,0-.109-.109m-1.061,3.726a3.439,3.439,0,0,1-.466,2.019,1.325,1.325,0,0,1-1.1.611,1.3,1.3,0,0,1-1.088-.624,3.612,3.612,0,0,1-.461-2.062,3.4,3.4,0,0,1,.463-1.955,1.27,1.27,0,0,1,1.038-.635,1.369,1.369,0,0,1,1.132.637,3.42,3.42,0,0,1,.48,2.01" transform="translate(12.243 12.289)" fill="#227fa1"/>
    <path id="Trazado_116602" data-name="Trazado 116602" d="M103.588,97.2h-1.022a.109.109,0,0,0-.109.109V104.7a.109.109,0,0,0,.109.109h1.022a.109.109,0,0,0,.109-.109V97.314a.109.109,0,0,0-.109-.109" transform="translate(12.973 12.308)" fill="#227fa1"/>
    <path id="Trazado_116603" data-name="Trazado 116603" d="M103.588,94.711h-1.022a.11.11,0,0,0-.109.109v1.439a.11.11,0,0,0,.109.11h1.022a.11.11,0,0,0,.109-.11V94.82a.11.11,0,0,0-.109-.109" transform="translate(12.973 11.992)" fill="#227fa1"/>
    <path id="Trazado_116604" data-name="Trazado 116604" d="M105.506,94.711h-1.022a.11.11,0,0,0-.109.109v10.194a.109.109,0,0,0,.109.109h1.022a.109.109,0,0,0,.109-.109V94.82a.11.11,0,0,0-.109-.109" transform="translate(13.216 11.992)" fill="#227fa1"/>
    <path id="Trazado_116605" data-name="Trazado 116605" d="M111.573,103.816a21.052,21.052,0,0,1-.065-2.192V99.955a6.39,6.39,0,0,0-.146-1.572,1.65,1.65,0,0,0-.73-.95,2.8,2.8,0,0,0-1.555-.376,2.992,2.992,0,0,0-1.95.568,2.911,2.911,0,0,0-.911,1.8.114.114,0,0,0,.019.082.109.109,0,0,0,.071.045l1.008.166a.108.108,0,0,0,.125-.086,1.847,1.847,0,0,1,.484-1.052,1.542,1.542,0,0,1,1-.273,1.368,1.368,0,0,1,1.094.41,1.527,1.527,0,0,1,.243.989l-.006.248a8.185,8.185,0,0,1-1.743.4,3.911,3.911,0,0,0-1.432.425,2.082,2.082,0,0,0-.764.812,2.5,2.5,0,0,0-.276,1.186,2.206,2.206,0,0,0,.594,1.613,2.141,2.141,0,0,0,1.587.6,2.72,2.72,0,0,0,1.2-.283,3.8,3.8,0,0,0,.941-.669,2.949,2.949,0,0,0,.19.718.108.108,0,0,0,.1.066h1.073a.109.109,0,0,0,.086-.18,3.19,3.19,0,0,1-.24-.83m-1.319-2.635v.29a3.3,3.3,0,0,1-.213,1.341,1.666,1.666,0,0,1-.631.717,1.726,1.726,0,0,1-.938.267,1.146,1.146,0,0,1-.828-.285,1,1,0,0,1-.294-.766,1.125,1.125,0,0,1,.13-.549.89.89,0,0,1,.357-.362,3.144,3.144,0,0,1,.87-.242,7.26,7.26,0,0,0,1.548-.41" transform="translate(13.427 12.289)" fill="#227fa1"/>
    <path id="Trazado_116606" data-name="Trazado 116606" d="M116.372,97.788a1.975,1.975,0,0,0-.705-.531,2.238,2.238,0,0,0-.944-.2,2.167,2.167,0,0,0-1.166.317,2.338,2.338,0,0,0-.649.623v-.664a.108.108,0,0,0-.108-.109h-.925a.109.109,0,0,0-.109.109v7.384a.109.109,0,0,0,.109.109H112.9a.109.109,0,0,0,.109-.109v-4.038a3.012,3.012,0,0,1,.415-1.818,1.308,1.308,0,0,1,1.089-.508,1.057,1.057,0,0,1,.623.186,1.088,1.088,0,0,1,.394.53,3.624,3.624,0,0,1,.133,1.153v4.5a.108.108,0,0,0,.108.109h1.023a.108.108,0,0,0,.108-.109v-4.54a6.8,6.8,0,0,0-.128-1.542,2.157,2.157,0,0,0-.4-.846" transform="translate(14.152 12.289)" fill="#227fa1"/>
    <path id="Trazado_116607" data-name="Trazado 116607" d="M122.308,102.065l-1.008-.16a.1.1,0,0,0-.082.021.108.108,0,0,0-.043.073,2.352,2.352,0,0,1-.5,1.333,1.194,1.194,0,0,1-.918.413,1.326,1.326,0,0,1-1.131-.628,3.786,3.786,0,0,1-.456-2.12,3.541,3.541,0,0,1,.475-2.067,1.394,1.394,0,0,1,1.168-.628,1.061,1.061,0,0,1,.791.338,2.07,2.07,0,0,1,.479,1.062.11.11,0,0,0,.126.087l.995-.181a.108.108,0,0,0,.088-.124,2.984,2.984,0,0,0-.858-1.815,2.375,2.375,0,0,0-1.655-.613,2.558,2.558,0,0,0-2.077,1,4.668,4.668,0,0,0-.8,2.958,4.735,4.735,0,0,0,.791,2.956,2.5,2.5,0,0,0,2.044,1.02,2.414,2.414,0,0,0,1.756-.728,3.494,3.494,0,0,0,.9-2.08.109.109,0,0,0-.091-.122" transform="translate(14.803 12.289)" fill="#227fa1"/>
    <path id="Trazado_116608" data-name="Trazado 116608" d="M123.138,94.711h-1.022a.109.109,0,0,0-.109.109v1.439a.11.11,0,0,0,.109.11h1.022a.11.11,0,0,0,.109-.11V94.82a.109.109,0,0,0-.109-.109" transform="translate(15.449 11.992)" fill="#227fa1"/>
    <path id="Trazado_116609" data-name="Trazado 116609" d="M123.138,97.2h-1.022a.109.109,0,0,0-.109.109V104.7a.109.109,0,0,0,.109.109h1.022a.109.109,0,0,0,.109-.109V97.314a.109.109,0,0,0-.109-.109" transform="translate(15.449 12.308)" fill="#227fa1"/>
    <path id="Trazado_116610" data-name="Trazado 116610" d="M129.174,103.816a21.4,21.4,0,0,1-.065-2.192V99.955a6.39,6.39,0,0,0-.146-1.572,1.65,1.65,0,0,0-.73-.95,2.8,2.8,0,0,0-1.555-.376,2.994,2.994,0,0,0-1.95.568,2.917,2.917,0,0,0-.911,1.8.114.114,0,0,0,.019.082.112.112,0,0,0,.071.045l1.008.166a.108.108,0,0,0,.125-.086,1.847,1.847,0,0,1,.484-1.052,1.544,1.544,0,0,1,1-.273,1.368,1.368,0,0,1,1.094.41,1.52,1.52,0,0,1,.243.989l-.006.248a8.167,8.167,0,0,1-1.743.4,3.91,3.91,0,0,0-1.432.425,2.081,2.081,0,0,0-.764.812,2.5,2.5,0,0,0-.276,1.186,2.2,2.2,0,0,0,.595,1.613,2.137,2.137,0,0,0,1.586.6,2.72,2.72,0,0,0,1.2-.283,3.782,3.782,0,0,0,.941-.669,2.949,2.949,0,0,0,.19.718.108.108,0,0,0,.1.066h1.074a.109.109,0,0,0,.084-.18,3.191,3.191,0,0,1-.24-.83m-1.319-2.635v.29a3.3,3.3,0,0,1-.213,1.341,1.678,1.678,0,0,1-.63.717,1.732,1.732,0,0,1-.94.267,1.146,1.146,0,0,1-.828-.285,1,1,0,0,1-.294-.766,1.125,1.125,0,0,1,.13-.549.9.9,0,0,1,.357-.362,3.143,3.143,0,0,1,.87-.242,7.26,7.26,0,0,0,1.548-.41" transform="translate(15.656 12.289)" fill="#227fa1"/>
    <path id="Trazado_116611" data-name="Trazado 116611" d="M136.928,94.711h-1.036a.109.109,0,0,0-.109.109v3.308a2.173,2.173,0,0,0-.553-.49,1.875,1.875,0,0,0-1-.284,2.245,2.245,0,0,0-1.353.445,2.984,2.984,0,0,0-.963,1.347,5.944,5.944,0,0,0-.355,2.175,4.681,4.681,0,0,0,.806,2.915,2.4,2.4,0,0,0,1.939,1.055,1.834,1.834,0,0,0,1-.3,2,2,0,0,0,.548-.525v.548a.109.109,0,0,0,.109.109h.961a.108.108,0,0,0,.107-.109V94.82a.109.109,0,0,0-.107-.109m-1.047,6.757a3.382,3.382,0,0,1-.46,1.952,1.272,1.272,0,0,1-1.046.622,1.306,1.306,0,0,1-1.07-.649,3.6,3.6,0,0,1-.478-2.065,3.831,3.831,0,0,1,.447-2.091A1.23,1.23,0,0,1,134.3,98.6a1.31,1.31,0,0,1,1.121.666,4.072,4.072,0,0,1,.461,2.2" transform="translate(16.658 11.992)" fill="#227fa1"/>
    <path id="Trazado_116612" data-name="Trazado 116612" d="M139.938,97.057a2.61,2.61,0,0,0-2.119,1.046,4.709,4.709,0,0,0-.827,2.986,4.488,4.488,0,0,0,.82,2.888,2.67,2.67,0,0,0,2.168,1.017,2.634,2.634,0,0,0,1.785-.628,3.329,3.329,0,0,0,.993-1.843.112.112,0,0,0-.09-.131l-1.058-.16a.106.106,0,0,0-.121.077c-.29.968-.781,1.438-1.5,1.438a1.444,1.444,0,0,1-1.167-.593,2.988,2.988,0,0,1-.546-1.7h4.405a.109.109,0,0,0,.108-.107l.008-.337a4.62,4.62,0,0,0-.81-2.925,2.521,2.521,0,0,0-2.046-1.029m-.007,1.246a1.377,1.377,0,0,1,1.169.643,2.587,2.587,0,0,1,.381,1.26h-3.146a2.355,2.355,0,0,1,.5-1.367,1.374,1.374,0,0,1,1.093-.536" transform="translate(17.346 12.289)" fill="#227fa1"/>
    <path id="Trazado_116613" data-name="Trazado 116613" d="M153.435,94.711h-1.487a.109.109,0,0,0-.106.079l-2,7.094c-.139.492-.251.9-.341,1.236l-2.277-8.329a.106.106,0,0,0-.1-.08h-1.664a.109.109,0,0,0-.108.109v10.194a.108.108,0,0,0,.108.109h1.065a.108.108,0,0,0,.108-.109V97.137l2.21,7.908a.11.11,0,0,0,.1.079h.995a.107.107,0,0,0,.1-.079l2.224-7.778v7.748a.11.11,0,0,0,.11.109h1.062a.11.11,0,0,0,.11-.109V94.82a.11.11,0,0,0-.11-.109" transform="translate(18.404 11.992)" fill="#227fa1"/>
    <path id="Trazado_116614" data-name="Trazado 116614" d="M156.158,97.057a2.61,2.61,0,0,0-2.119,1.046,4.709,4.709,0,0,0-.827,2.986,4.489,4.489,0,0,0,.82,2.888,2.67,2.67,0,0,0,2.168,1.017,2.642,2.642,0,0,0,1.786-.628,3.328,3.328,0,0,0,.991-1.843.112.112,0,0,0-.09-.131l-1.058-.16a.106.106,0,0,0-.121.077c-.29.968-.78,1.438-1.5,1.438a1.445,1.445,0,0,1-1.167-.593,2.988,2.988,0,0,1-.546-1.7H158.9a.109.109,0,0,0,.108-.107l.008-.337a4.62,4.62,0,0,0-.81-2.925,2.521,2.521,0,0,0-2.046-1.029m-.007,1.246a1.377,1.377,0,0,1,1.169.643,2.587,2.587,0,0,1,.38,1.26h-3.144a2.355,2.355,0,0,1,.5-1.367,1.374,1.374,0,0,1,1.093-.536" transform="translate(19.4 12.289)" fill="#227fa1"/>
    <path id="Trazado_116615" data-name="Trazado 116615" d="M163.97,94.711h-1.034a.11.11,0,0,0-.112.109v3.308a2.126,2.126,0,0,0-.551-.49,1.879,1.879,0,0,0-1-.284,2.237,2.237,0,0,0-1.352.445,2.986,2.986,0,0,0-.964,1.347,5.944,5.944,0,0,0-.355,2.175,4.674,4.674,0,0,0,.807,2.915,2.4,2.4,0,0,0,1.938,1.055,1.831,1.831,0,0,0,1-.3,2,2,0,0,0,.549-.525v.548a.109.109,0,0,0,.109.109h.959a.109.109,0,0,0,.109-.109V94.82a.109.109,0,0,0-.109-.109m-1.046,6.757a3.382,3.382,0,0,1-.46,1.952,1.271,1.271,0,0,1-1.047.622,1.3,1.3,0,0,1-1.068-.649,3.586,3.586,0,0,1-.479-2.065,3.8,3.8,0,0,1,.45-2.091,1.222,1.222,0,0,1,1.022-.638,1.306,1.306,0,0,1,1.12.666,4.061,4.061,0,0,1,.462,2.2" transform="translate(20.083 11.992)" fill="#227fa1"/>
    <path id="Trazado_116616" data-name="Trazado 116616" d="M165.48,94.711h-1.022a.109.109,0,0,0-.109.109v1.439a.11.11,0,0,0,.109.11h1.022a.111.111,0,0,0,.11-.11V94.82a.11.11,0,0,0-.11-.109" transform="translate(20.81 11.992)" fill="#227fa1"/>
    <path id="Trazado_116617" data-name="Trazado 116617" d="M165.48,97.2h-1.022a.109.109,0,0,0-.109.109V104.7a.109.109,0,0,0,.109.109h1.022a.11.11,0,0,0,.11-.109V97.314a.11.11,0,0,0-.11-.109" transform="translate(20.81 12.308)" fill="#227fa1"/>
    <path id="Trazado_116618" data-name="Trazado 116618" d="M176.952,103.816a21.9,21.9,0,0,1-.064-2.192V99.955a6.391,6.391,0,0,0-.146-1.572,1.65,1.65,0,0,0-.73-.95,2.8,2.8,0,0,0-1.555-.376,2.994,2.994,0,0,0-1.95.568,2.91,2.91,0,0,0-.91,1.8.1.1,0,0,0,.018.082.109.109,0,0,0,.07.045l1.009.166a.106.106,0,0,0,.124-.086,1.854,1.854,0,0,1,.484-1.052,1.544,1.544,0,0,1,1-.273,1.367,1.367,0,0,1,1.094.41,1.513,1.513,0,0,1,.244.989l0,.248a8.212,8.212,0,0,1-1.745.4,3.918,3.918,0,0,0-1.431.425,2.087,2.087,0,0,0-.763.812,2.3,2.3,0,0,0-.2.517.113.113,0,0,0-.071-.044l-1.009-.159a.1.1,0,0,0-.081.02.109.109,0,0,0-.044.074,2.344,2.344,0,0,1-.5,1.332,1.194,1.194,0,0,1-.917.413,1.328,1.328,0,0,1-1.132-.628,3.8,3.8,0,0,1-.455-2.12,3.541,3.541,0,0,1,.475-2.067,1.393,1.393,0,0,1,1.168-.628,1.057,1.057,0,0,1,.79.338,2.065,2.065,0,0,1,.48,1.062.109.109,0,0,0,.125.088l.995-.183a.106.106,0,0,0,.088-.124,2.984,2.984,0,0,0-.858-1.815,2.378,2.378,0,0,0-1.655-.613,2.557,2.557,0,0,0-2.076,1,4.671,4.671,0,0,0-.8,2.96,4.731,4.731,0,0,0,.792,2.955,2.5,2.5,0,0,0,2.043,1.02,2.412,2.412,0,0,0,1.756-.728,3.176,3.176,0,0,0,.806-1.556c0,.023,0,.045,0,.068a2.206,2.206,0,0,0,.594,1.613,2.139,2.139,0,0,0,1.586.6,2.718,2.718,0,0,0,1.2-.283,3.8,3.8,0,0,0,.941-.669,3,3,0,0,0,.189.718.108.108,0,0,0,.1.066h1.075a.1.1,0,0,0,.112-.108.114.114,0,0,0-.027-.072,3.236,3.236,0,0,1-.241-.83m-1.318-2.635v.29a3.3,3.3,0,0,1-.212,1.341,1.68,1.68,0,0,1-.631.717,1.729,1.729,0,0,1-.94.267,1.152,1.152,0,0,1-.829-.285,1.012,1.012,0,0,1-.293-.766,1.125,1.125,0,0,1,.13-.549.89.89,0,0,1,.357-.362,3.157,3.157,0,0,1,.869-.242,7.254,7.254,0,0,0,1.549-.41" transform="translate(21.022 12.289)" fill="#227fa1"/>
    <path id="Trazado_116619" data-name="Trazado 116619" d="M182.989,97.056a1.926,1.926,0,0,0-1.1.341,2.772,2.772,0,0,0-.747.8,1.79,1.79,0,0,0-.588-.79,1.862,1.862,0,0,0-1.146-.35,2.007,2.007,0,0,0-1.106.329,2.3,2.3,0,0,0-.616.594v-.647a.109.109,0,0,0-.11-.109h-.917a.109.109,0,0,0-.109.109v7.385a.108.108,0,0,0,.109.108h1.023a.107.107,0,0,0,.108-.108v-3.836a3.684,3.684,0,0,1,.388-2.008,1.179,1.179,0,0,1,1.021-.522.8.8,0,0,1,.686.332,2.127,2.127,0,0,1,.261,1.229v4.8a.108.108,0,0,0,.108.108h1.023a.107.107,0,0,0,.108-.108v-4.3a2.557,2.557,0,0,1,.4-1.585,1.21,1.21,0,0,1,1-.484.882.882,0,0,1,.517.161.9.9,0,0,1,.332.459,3.719,3.719,0,0,1,.109,1.088v4.657a.109.109,0,0,0,.11.108h1.021a.108.108,0,0,0,.11-.108V99.648a3.018,3.018,0,0,0-.528-1.963,1.818,1.818,0,0,0-1.459-.63" transform="translate(22.354 12.289)" fill="#227fa1"/>
    <path id="Trazado_116620" data-name="Trazado 116620" d="M187.451,97.057a2.61,2.61,0,0,0-2.119,1.046,4.716,4.716,0,0,0-.827,2.986,4.5,4.5,0,0,0,.82,2.888,2.673,2.673,0,0,0,2.168,1.017,2.642,2.642,0,0,0,1.787-.628,3.334,3.334,0,0,0,.99-1.843.108.108,0,0,0-.017-.084.1.1,0,0,0-.073-.046l-1.057-.16a.105.105,0,0,0-.121.077c-.29.968-.782,1.438-1.5,1.438a1.443,1.443,0,0,1-1.166-.593,2.979,2.979,0,0,1-.546-1.7h4.4a.111.111,0,0,0,.109-.107l.007-.337a4.62,4.62,0,0,0-.81-2.925,2.521,2.521,0,0,0-2.046-1.029m-.007,1.246a1.378,1.378,0,0,1,1.171.643,2.6,2.6,0,0,1,.381,1.26h-3.147a2.355,2.355,0,0,1,.5-1.367,1.374,1.374,0,0,1,1.092-.536" transform="translate(23.362 12.289)" fill="#227fa1"/>
    <path id="Trazado_116621" data-name="Trazado 116621" d="M194.837,97.788a1.971,1.971,0,0,0-.7-.531,2.244,2.244,0,0,0-.945-.2,2.168,2.168,0,0,0-1.165.317,2.339,2.339,0,0,0-.649.623v-.664a.108.108,0,0,0-.108-.109h-.925a.109.109,0,0,0-.109.109v7.384a.109.109,0,0,0,.109.109h1.022a.109.109,0,0,0,.109-.109v-4.038a3.013,3.013,0,0,1,.415-1.818,1.308,1.308,0,0,1,1.089-.508,1.056,1.056,0,0,1,.622.186,1.076,1.076,0,0,1,.4.53,3.664,3.664,0,0,1,.132,1.153v4.5a.109.109,0,0,0,.109.109h1.022a.109.109,0,0,0,.109-.109v-4.54a6.737,6.737,0,0,0-.128-1.542,2.158,2.158,0,0,0-.4-.846" transform="translate(24.087 12.289)" fill="#227fa1"/>
    <path id="Trazado_116622" data-name="Trazado 116622" d="M198.156,103.782a.115.115,0,0,0-.083-.02,2.606,2.606,0,0,1-.434.047.4.4,0,0,1-.4-.192,1.809,1.809,0,0,1-.079-.721v-4.21h.927a.108.108,0,0,0,.109-.108V97.6a.109.109,0,0,0-.109-.109h-.927V95.024a.109.109,0,0,0-.174-.089l-1.021.75a.109.109,0,0,0-.045.089V97.5h-.642a.109.109,0,0,0-.109.109v.973a.108.108,0,0,0,.109.108h.642v4.139a5.707,5.707,0,0,0,.126,1.5,1.193,1.193,0,0,0,.492.639,1.684,1.684,0,0,0,.923.23,3.1,3.1,0,0,0,.792-.116.108.108,0,0,0,.081-.118l-.139-1.106a.114.114,0,0,0-.044-.073" transform="translate(24.713 12.018)" fill="#227fa1"/>
    <path id="Trazado_116623" data-name="Trazado 116623" d="M200.772,97.057a2.641,2.641,0,0,0-2.119,1.013,5.655,5.655,0,0,0,.009,5.907,2.712,2.712,0,0,0,4.23,0,4.717,4.717,0,0,0,.826-3.031,4.4,4.4,0,0,0-.839-2.881,2.647,2.647,0,0,0-2.107-1.012m.027,6.689a1.444,1.444,0,0,1-1.205-.656,4.526,4.526,0,0,1-.007-4.128,1.394,1.394,0,0,1,1.156-.659,1.445,1.445,0,0,1,1.207.656,4.506,4.506,0,0,1,0,4.125,1.4,1.4,0,0,1-1.154.662" transform="translate(25.049 12.289)" fill="#227fa1"/>
    <path id="Trazado_116624" data-name="Trazado 116624" d="M207.636,100.784a8.362,8.362,0,0,0-1.673-.657,5.019,5.019,0,0,1-1.083-.427.65.65,0,0,1-.27-.557.734.734,0,0,1,.285-.6,1.465,1.465,0,0,1,.927-.243,1.1,1.1,0,0,1,1.205,1.114.114.114,0,0,0,.043.073.1.1,0,0,0,.083.021l1-.167a.109.109,0,0,0,.09-.123,2.952,2.952,0,0,0-.393-1.22,1.974,1.974,0,0,0-.826-.692,2.841,2.841,0,0,0-1.233-.255,2.411,2.411,0,0,0-1.752.622,2.173,2.173,0,0,0-.639,1.616,2.219,2.219,0,0,0,.235,1.03,1.855,1.855,0,0,0,.665.73,7.579,7.579,0,0,0,1.626.64,3.683,3.683,0,0,1,1.008.4.7.7,0,0,1,.27.6.968.968,0,0,1-.328.757,1.622,1.622,0,0,1-1.951-.05,1.741,1.741,0,0,1-.46-1.1.1.1,0,0,0-.043-.077.109.109,0,0,0-.086-.018l-1.022.195a.107.107,0,0,0-.087.123,2.49,2.49,0,0,0,2.632,2.471,2.628,2.628,0,0,0,1.907-.685,2.4,2.4,0,0,0,.7-1.792,2.3,2.3,0,0,0-.219-1.034,1.733,1.733,0,0,0-.621-.7" transform="translate(25.733 12.289)" fill="#227fa1"/>
    <path id="Trazado_116625" data-name="Trazado 116625" d="M216.094,97.2h-1.03a.109.109,0,0,0-.1.077l-1.293,4.3c-.117.394-.222.8-.317,1.211-.1-.433-.214-.847-.33-1.238l-1.265-4.274a.109.109,0,0,0-.1-.078h-1.105a.107.107,0,0,0-.088.044.11.11,0,0,0-.016.1l2.294,7.364c-.3.947-.373,1.146-.388,1.178a.886.886,0,0,1-.313.366,1.2,1.2,0,0,1-1.032.01.11.11,0,0,0-.1.018.112.112,0,0,0-.041.1l.112,1.176a.109.109,0,0,0,.066.09,1.885,1.885,0,0,0,.7.16,1.451,1.451,0,0,0,.808-.233,1.97,1.97,0,0,0,.629-.746,13.693,13.693,0,0,0,.722-1.969l2.3-7.51a.1.1,0,0,0-.017-.1.108.108,0,0,0-.087-.044" transform="translate(26.646 12.308)" fill="#227fa1"/>
    <path id="Trazado_116626" data-name="Trazado 116626" d="M221.667,94.785a.11.11,0,0,0-.1-.074h-1.183a.109.109,0,0,0-.1.075l-3.224,10.195a.1.1,0,0,0,.017.1.105.105,0,0,0,.088.045h1.166a.109.109,0,0,0,.1-.078l.886-3.009h3.354l.95,3.011a.109.109,0,0,0,.1.075h1.266a.105.105,0,0,0,.088-.045.114.114,0,0,0,.016-.1Zm.588,5.934H219.7l.887-2.849c.145-.481.271-.971.368-1.46.121.459.278,1,.471,1.627Z" transform="translate(27.483 11.992)" fill="#227fa1"/>
    <path id="Trazado_116627" data-name="Trazado 116627" d="M225.392,94.711h-1.021a.11.11,0,0,0-.11.109v10.194a.109.109,0,0,0,.11.109h1.021a.11.11,0,0,0,.11-.109V94.82a.11.11,0,0,0-.11-.109" transform="translate(28.396 11.992)" fill="#227fa1"/>
    <path id="Trazado_116628" data-name="Trazado 116628" d="M227.371,97.2h-1.022a.109.109,0,0,0-.109.109V104.7a.109.109,0,0,0,.109.109h1.022a.109.109,0,0,0,.109-.109V97.314a.109.109,0,0,0-.109-.109" transform="translate(28.647 12.308)" fill="#227fa1"/>
    <path id="Trazado_116629" data-name="Trazado 116629" d="M227.371,94.711h-1.022a.11.11,0,0,0-.109.109v1.439a.11.11,0,0,0,.109.11h1.022a.11.11,0,0,0,.109-.11V94.82a.109.109,0,0,0-.109-.109" transform="translate(28.647 11.992)" fill="#227fa1"/>
    <path id="Trazado_116630" data-name="Trazado 116630" d="M234.639,97.056a1.915,1.915,0,0,0-1.1.341,2.727,2.727,0,0,0-.747.8,1.792,1.792,0,0,0-.589-.79,1.864,1.864,0,0,0-1.145-.35,2.007,2.007,0,0,0-1.107.329,2.315,2.315,0,0,0-.616.594v-.647a.109.109,0,0,0-.109-.109H228.3a.11.11,0,0,0-.11.109v7.385a.109.109,0,0,0,.11.108h1.021a.108.108,0,0,0,.11-.108v-3.836a3.709,3.709,0,0,1,.385-2.008,1.183,1.183,0,0,1,1.021-.522.8.8,0,0,1,.688.332,2.146,2.146,0,0,1,.26,1.229v4.8a.107.107,0,0,0,.108.108h1.023a.108.108,0,0,0,.109-.108v-4.3a2.55,2.55,0,0,1,.4-1.585,1.209,1.209,0,0,1,1-.484.874.874,0,0,1,.517.161.888.888,0,0,1,.333.459,3.71,3.71,0,0,1,.11,1.088v4.657a.107.107,0,0,0,.108.108h1.023a.108.108,0,0,0,.109-.108V99.648a3.011,3.011,0,0,0-.528-1.963,1.817,1.817,0,0,0-1.458-.63" transform="translate(28.894 12.289)" fill="#227fa1"/>
    <path id="Trazado_116631" data-name="Trazado 116631" d="M239.1,97.057a2.61,2.61,0,0,0-2.119,1.046,4.7,4.7,0,0,0-.827,2.986,4.488,4.488,0,0,0,.82,2.888,2.67,2.67,0,0,0,2.168,1.017,2.637,2.637,0,0,0,1.785-.628,3.321,3.321,0,0,0,.991-1.843.1.1,0,0,0-.017-.084.106.106,0,0,0-.072-.046l-1.058-.16a.107.107,0,0,0-.122.077c-.288.968-.78,1.438-1.5,1.438a1.444,1.444,0,0,1-1.167-.593,3,3,0,0,1-.548-1.7h4.406a.108.108,0,0,0,.107-.107l.008-.337a4.62,4.62,0,0,0-.809-2.925,2.521,2.521,0,0,0-2.046-1.029m-.008,1.246a1.374,1.374,0,0,1,1.169.643,2.575,2.575,0,0,1,.381,1.26H237.5a2.354,2.354,0,0,1,.5-1.367,1.377,1.377,0,0,1,1.093-.536" transform="translate(29.902 12.289)" fill="#227fa1"/>
    <path id="Trazado_116632" data-name="Trazado 116632" d="M246.488,97.788a1.965,1.965,0,0,0-.705-.531,2.24,2.24,0,0,0-.945-.2,2.156,2.156,0,0,0-1.164.317,2.309,2.309,0,0,0-.649.623v-.664a.109.109,0,0,0-.109-.109h-.925a.109.109,0,0,0-.109.109v7.384a.109.109,0,0,0,.109.109h1.022a.109.109,0,0,0,.109-.109v-4.038a3.022,3.022,0,0,1,.413-1.818,1.312,1.312,0,0,1,1.092-.508,1.056,1.056,0,0,1,.622.186,1.081,1.081,0,0,1,.394.53,3.63,3.63,0,0,1,.132,1.153v4.5a.109.109,0,0,0,.11.109h1.021a.109.109,0,0,0,.11-.109v-4.54a6.789,6.789,0,0,0-.13-1.542,2.157,2.157,0,0,0-.4-.846" transform="translate(30.627 12.289)" fill="#227fa1"/>
    <path id="Trazado_116633" data-name="Trazado 116633" d="M249.806,103.782a.114.114,0,0,0-.083-.02c-.5.089-.726.055-.83-.144a1.849,1.849,0,0,1-.078-.721v-4.21h.926a.109.109,0,0,0,.109-.108V97.6a.109.109,0,0,0-.109-.109h-.926V95.024a.108.108,0,0,0-.061-.1.1.1,0,0,0-.113.009l-1.023.75a.111.111,0,0,0-.044.089V97.5h-.643a.108.108,0,0,0-.107.109v.973a.108.108,0,0,0,.107.108h.643v4.139a5.642,5.642,0,0,0,.127,1.5,1.182,1.182,0,0,0,.492.639,1.677,1.677,0,0,0,.922.23,3.122,3.122,0,0,0,.793-.116.105.105,0,0,0,.079-.118l-.139-1.106a.108.108,0,0,0-.043-.073" transform="translate(31.253 12.018)" fill="#227fa1"/>
    <path id="Trazado_116634" data-name="Trazado 116634" d="M252.421,97.057A2.639,2.639,0,0,0,250.3,98.07a5.655,5.655,0,0,0,.007,5.907,2.715,2.715,0,0,0,4.233,0,4.731,4.731,0,0,0,.824-3.031,4.4,4.4,0,0,0-.838-2.881,2.644,2.644,0,0,0-2.107-1.012m.027,6.689a1.446,1.446,0,0,1-1.206-.656,4.536,4.536,0,0,1-.007-4.128,1.394,1.394,0,0,1,1.157-.659,1.444,1.444,0,0,1,1.205.656,4.51,4.51,0,0,1,0,4.125,1.394,1.394,0,0,1-1.152.662" transform="translate(31.589 12.289)" fill="#227fa1"/>
    <path id="Trazado_116635" data-name="Trazado 116635" d="M259.906,101.481a1.742,1.742,0,0,0-.621-.7,8.274,8.274,0,0,0-1.672-.657,5.077,5.077,0,0,1-1.085-.427.654.654,0,0,1-.269-.557.726.726,0,0,1,.287-.6,1.451,1.451,0,0,1,.925-.243,1.1,1.1,0,0,1,1.207,1.114.1.1,0,0,0,.042.073.1.1,0,0,0,.085.021l1-.167a.109.109,0,0,0,.09-.123A2.952,2.952,0,0,0,259.5,98a1.971,1.971,0,0,0-.827-.692,2.836,2.836,0,0,0-1.231-.255,2.41,2.41,0,0,0-1.752.622,2.168,2.168,0,0,0-.639,1.616,2.232,2.232,0,0,0,.234,1.03,1.86,1.86,0,0,0,.664.73,7.542,7.542,0,0,0,1.628.639,3.727,3.727,0,0,1,1.007.4.707.707,0,0,1,.27.595.964.964,0,0,1-.329.758,1.619,1.619,0,0,1-1.949-.05,1.735,1.735,0,0,1-.46-1.1.106.106,0,0,0-.044-.077.108.108,0,0,0-.085-.018l-1.023.194a.109.109,0,0,0-.087.124,2.49,2.49,0,0,0,2.632,2.471,2.631,2.631,0,0,0,1.908-.685,2.408,2.408,0,0,0,.7-1.792,2.294,2.294,0,0,0-.22-1.034" transform="translate(32.273 12.289)" fill="#227fa1"/>
    <path id="Trazado_116636" data-name="Trazado 116636" d="M261.751,102.63h-1.022a.11.11,0,0,0-.109.11v1.439a.109.109,0,0,0,.109.109h1.022a.109.109,0,0,0,.109-.109V102.74a.11.11,0,0,0-.109-.11" transform="translate(33 12.995)" fill="#227fa1"/>
  </g>
</svg>
